<svg width="1380" height="380" viewBox="0 0 1380 380" fill="none" xmlns="http://www.w3.org/2000/svg">
<path d="M453.266 82.2162C461.957 88.2393 471.613 91.0788 482.131 90.1931C497.962 88.858 510.059 81.2688 518.113 67.5179C522.326 60.3241 524.337 52.4602 523.954 44.129C523.225 28.2472 516.167 15.8544 502.796 7.22029C495.138 2.27551 486.611 -0.0479766 477.515 0.439827C460.56 1.35125 447.754 9.23312 439.428 24.0854C435.076 31.8467 433.387 40.2831 434.196 49.1277C435.277 60.9274 440.237 70.8658 449.022 78.8606C449.225 79.0455 449.431 79.2303 449.636 79.4152C450.391 80.2624 453.266 82.2136 453.266 82.2136V82.2162ZM452.113 77.2226C463.818 68.7631 472.912 58.206 479.9 45.8107C486.896 33.4025 491.089 20.1342 491.859 5.7081C493.122 6.20104 494.319 6.68627 495.528 7.13043C495.972 7.29218 496.095 7.51297 496.077 7.99821C495.867 13.744 495.081 19.4077 493.823 25.0148C492.283 31.8775 490.052 38.5013 486.981 44.8274C481.574 55.9775 474.203 65.6514 464.832 73.7566C462.278 75.9672 459.466 77.8824 456.755 79.9107C456.568 80.0519 456.147 80.1263 455.983 80.0159C454.704 79.1379 453.461 78.2085 452.108 77.2226H452.113ZM482.963 3.82877C484.581 4.11119 486.193 4.41671 487.816 4.66061C488.347 4.7402 488.522 4.94302 488.47 5.46677C488.226 7.9597 488.088 10.4655 487.759 12.9456C487.084 18.0624 485.831 23.0534 484.203 27.9494C481.97 34.6682 478.989 41.0379 475.292 47.0764C469.292 56.871 461.867 65.4049 452.812 72.4935C451.777 73.3048 450.691 74.0493 449.569 74.8709C448.339 73.464 447.169 72.1289 445.967 70.7554C446.619 70.283 447.166 69.8953 447.703 69.4948C453.836 64.8915 459.12 59.4332 463.782 53.3716C470.881 44.1444 476.532 34.1265 480.021 22.9661C481.333 18.771 482.27 14.4911 482.647 10.1086C482.822 8.08036 482.855 6.03929 482.963 3.82621V3.82877ZM499.502 9.18177C499.577 9.21001 499.669 9.22542 499.744 9.27163C500.783 9.92632 501.81 10.6041 502.863 11.2357C503.356 11.5309 503.53 11.8955 503.538 12.4732C503.649 19.6541 502.557 26.6759 500.665 33.5771C498.303 42.1958 494.822 50.3421 490.036 57.9056C483.52 68.206 475.276 76.8324 465.051 83.5256C464.311 84.0108 463.69 84.229 462.843 83.754C461.803 83.1712 460.686 82.7271 459.651 82.2444C484.265 64.0134 497.292 39.5976 499.502 9.18177ZM451.98 13.3332C452.07 13.4 452.162 13.4642 452.252 13.5309C452.329 13.5797 452.411 13.6234 452.486 13.6798C460.057 19.3769 466.239 26.3653 471.5 34.2009C471.605 34.3601 471.656 34.6656 471.577 34.8197C470.637 36.6246 469.667 38.414 468.642 40.3216C463.261 31.2818 456.938 23.2742 448.152 17.4898C449.446 16.0855 450.712 14.7094 451.98 13.3332ZM498.742 82.0981C498.742 81.6899 498.75 81.4896 498.742 81.2919C498.599 78.0005 498.56 74.7014 498.28 71.4229C497.844 66.283 496.773 61.2458 495.438 56.2651C495.343 55.9108 495.423 55.4358 495.587 55.0969C496.293 53.6361 497.068 52.2112 497.803 50.7631C498.142 50.0905 498.442 49.3973 498.837 48.5475C499.13 49.4589 499.371 50.1752 499.59 50.8992C500.986 55.5744 502.005 60.3267 502.591 65.1739C503.138 69.7002 503.394 74.2342 503.094 78.7887C503.079 79.0249 503.017 79.3613 502.855 79.4665C501.551 80.3369 500.219 81.161 498.745 82.0955L498.742 82.0981ZM464.784 46.0289C464.827 46.0879 464.873 46.147 464.917 46.2086C463.623 47.9519 462.334 49.6977 461.025 51.4307C460.922 51.5667 460.678 51.6515 460.491 51.6643C459.22 51.767 457.944 51.8337 456.673 51.9364C451.803 52.3267 447.027 53.2099 442.391 54.7785C441.192 55.1842 440.016 55.6591 438.732 56.1393C438.37 54.2548 438.016 52.4217 437.654 50.5398C446.519 47.4358 455.551 46.1342 464.784 46.0315V46.0289ZM466.157 42.6579C456.229 42.6528 446.712 43.9005 437.441 47.0456C437.441 45.6335 437.454 44.3164 437.433 42.9994C437.425 42.5295 437.608 42.3267 438.057 42.1701C442.378 40.6528 446.791 39.4718 451.307 38.7478C454.922 38.1676 458.573 37.7953 462.208 37.3511C462.445 37.3229 462.825 37.3973 462.93 37.5591C463.993 39.1842 465.015 40.8376 466.157 42.6605V42.6579ZM454.95 11.305C456.18 10.5476 457.315 9.87497 458.419 9.15353C458.843 8.87626 459.122 8.93017 459.51 9.22542C465.472 13.7543 470.73 19.002 475.433 24.8146C475.572 24.984 475.69 25.305 475.623 25.4847C474.94 27.2998 474.216 29.0996 473.448 31.0508C468.206 23.5181 462.234 16.9045 454.95 11.305ZM490.66 85.3792C490.627 85.084 490.604 84.971 490.606 84.858C490.624 78.6629 489.844 72.5551 488.578 66.5012C488.527 66.2548 488.647 65.9184 488.799 65.6951C490.044 63.8517 491.317 62.0237 492.575 60.188C492.65 60.0802 492.676 59.9364 492.722 59.808C494.008 64.5449 494.83 69.179 495.112 73.885C495.297 76.9607 495.261 80.0493 495.305 83.1302C495.307 83.3407 495.189 83.6847 495.038 83.7438C493.623 84.3035 492.19 84.8144 490.66 85.3766V85.3792ZM457.723 55.31C453.68 60.0802 449.212 64.3497 444.07 67.9723C442.311 65.2458 440.897 62.4293 439.826 59.3742C445.577 56.8735 451.546 55.7105 457.723 55.31ZM500.901 43.4641C501.071 43.4538 501.122 43.4333 501.161 43.4487C502.126 43.8466 503.094 44.2317 504.049 44.6476C509.443 47.0045 514.568 49.8363 519.34 53.292C519.7 53.5513 519.808 53.8055 519.692 54.2189C519.358 55.4255 519.048 56.6373 518.719 57.844C518.675 58.0083 518.578 58.1598 518.501 58.3318C518.373 58.265 518.285 58.2317 518.208 58.1803C513.502 55.0404 508.496 52.4756 503.281 50.301C503.066 50.2112 502.855 49.9519 502.773 49.7259C502.131 47.939 501.507 46.1419 500.912 44.3396C500.824 44.0725 500.899 43.7516 500.899 43.4666L500.901 43.4641ZM437.898 38.6656C438.085 37.7157 438.209 36.9352 438.396 36.1727C438.953 33.9031 438.974 33.9314 441.158 33.1021C445.97 31.2793 450.935 30.0675 456.011 29.2998C456.267 29.2613 456.658 29.3974 456.825 29.5925C457.972 30.9301 459.076 32.3036 460.188 33.6695C460.278 33.7799 460.332 33.9185 460.437 34.1085C452.735 34.7555 445.271 36.2061 437.895 38.6682L437.898 38.6656ZM520.468 49.9698C514.67 45.8697 508.568 42.7349 502.172 40.1907C502.714 38.4705 503.23 36.8428 503.772 35.1252C505.027 35.7029 506.234 36.2292 507.418 36.8043C511.913 38.9917 516.219 41.4898 520.193 44.5398C520.378 44.6836 520.632 44.9121 520.629 45.0995C520.609 46.6707 520.534 48.2394 520.473 49.9724L520.468 49.9698ZM462.342 7.16381C463.608 6.69911 464.727 6.33197 465.803 5.87241C466.47 5.58743 466.963 5.74661 467.528 6.11632C471.058 8.41926 474.252 11.1304 477.307 14.0239C478.175 14.8454 478.627 15.5746 478.198 16.8172C477.705 18.2472 477.433 19.7517 477.022 21.3871C472.57 16.1189 467.821 11.4128 462.342 7.16381ZM481.941 86.9607C481.877 86.7579 481.851 86.7142 481.851 86.6706C481.862 82.8811 481.507 79.1199 480.997 75.369C480.961 75.102 481.104 74.7348 481.289 74.5243C482.606 73.0249 483.954 71.5564 485.294 70.0802C485.42 69.9441 485.564 69.8234 485.836 69.5692C486.208 72.4447 486.642 75.1251 486.881 77.8234C487.109 80.4087 487.145 83.0095 487.235 85.6051C487.243 85.8054 487.035 86.1648 486.884 86.1931C485.243 86.478 483.595 86.7117 481.941 86.9607ZM504.052 54.3267C508.753 56.414 513.14 58.7683 517.366 61.6617C516.545 63.292 515.741 64.8863 514.963 66.4268C514.781 66.4165 514.755 66.4216 514.737 66.4114C511.756 64.722 508.773 63.0378 505.805 61.3305C505.602 61.215 505.42 60.9351 505.369 60.7015C505.084 59.3896 504.85 58.0674 504.586 56.7503C504.432 55.9878 504.252 55.2304 504.052 54.3267ZM514.321 23.1869C515.132 24.7222 515.957 26.2472 516.729 27.7928C516.801 27.9365 516.632 28.3268 516.462 28.4423C514.408 29.8672 512.311 31.2305 510.275 32.6785C509.099 33.5129 507.993 33.6079 506.806 32.7683C506.583 32.6117 506.303 32.5373 506.049 32.4243C504.647 31.7876 504.665 31.7902 504.943 30.2831C505.043 29.7414 505.281 29.3897 505.767 29.1021C506.94 28.4038 508.103 27.6772 509.222 26.8942C510.907 25.7157 512.552 24.4808 514.324 23.1894L514.321 23.1869ZM445.934 20.0983C448.763 21.8544 451.248 23.9032 453.472 26.0752C449.12 27.2356 444.791 28.391 440.504 29.5334C441.852 26.2498 443.651 23.0816 445.934 20.0983ZM478.586 86.989C474.938 86.9273 471.579 86.4729 468.321 85.5923C471.533 83.048 474.709 80.532 478.016 77.9132C478.206 80.9428 478.393 83.9132 478.586 86.989ZM506.704 76.4344C506.519 72.6784 506.339 69.0121 506.152 65.1919C508.486 66.5654 510.763 67.903 513.073 69.2637C511.15 71.9877 509.081 74.3343 506.704 76.4344ZM520.296 40.3062C517.61 38.6477 514.976 37.0199 512.373 35.4128C514.321 34.0982 516.265 32.7863 518.249 31.4461C519.245 34.355 519.99 37.269 520.296 40.3062ZM506.098 25.0534C506.421 21.4641 506.727 18.0624 507.038 14.5964C508.989 16.3319 510.717 18.2677 512.362 20.4654C510.272 21.9956 508.229 23.4924 506.095 25.0534H506.098ZM471.294 4.43981C473.993 3.96228 476.688 3.66703 479.577 3.74919C479.469 6.22928 479.366 8.60925 479.261 11.0534C476.514 8.77356 473.923 6.62209 471.297 4.44238L471.294 4.43981Z" fill="#FF7841"/>
<path d="M451.001 75.3762C413.667 119.543 312.701 197.176 207.501 154.376C76.0007 100.876 -9.49935 175.876 3.00065 284.376C13.0006 371.176 129.834 382.543 187 377.376C267.333 312.543 496 196.176 768 249.376C1108 315.876 1315 329.376 1378.5 202.376" stroke="#FF7841" stroke-width="3"/>
</svg>
