<svg width="889" height="174" viewBox="0 0 889 174" fill="none" xmlns="http://www.w3.org/2000/svg">
<path d="M2 88.8557C2.00105 61.3557 32.5004 11.2934 93.4989 2.35798C136.833 0.0244325 230.2 14.057 257 88.8557C259.833 101.189 288.6 120.257 381 97.8569C496.5 69.8569 607.5 69.8569 667 97.8569C714.6 120.257 786.833 129.524 817 131.357" stroke="#FF7841" stroke-width="3"/>
<path d="M829.269 166.983C836.608 172.071 844.762 174.469 853.644 173.721C867.012 172.594 877.228 166.183 884.029 154.568C887.587 148.492 889.284 141.849 888.961 134.812C888.345 121.397 882.386 110.929 871.095 103.636C864.627 99.4597 857.427 97.4972 849.746 97.9092C835.429 98.679 824.615 105.337 817.584 117.882C813.909 124.438 812.482 131.564 813.165 139.035C814.078 149.001 818.267 157.396 825.686 164.149C825.857 164.305 826.03 164.461 826.204 164.617C826.841 165.333 829.269 166.981 829.269 166.981V166.983ZM828.296 162.766C838.18 155.62 845.859 146.703 851.76 136.233C857.668 125.752 861.208 114.545 861.859 102.359C862.925 102.776 863.936 103.185 864.957 103.561C865.332 103.697 865.436 103.884 865.421 104.294C865.243 109.147 864.58 113.931 863.517 118.667C862.217 124.464 860.333 130.059 857.74 135.402C853.174 144.82 846.949 152.992 839.036 159.838C836.879 161.705 834.505 163.323 832.216 165.036C832.057 165.155 831.702 165.218 831.563 165.125C830.483 164.383 829.434 163.598 828.291 162.766H828.296ZM854.347 100.772C855.713 101.01 857.074 101.268 858.444 101.474C858.893 101.542 859.04 101.713 858.997 102.155C858.791 104.261 858.674 106.378 858.397 108.472C857.826 112.794 856.768 117.01 855.394 121.146C853.508 126.821 850.991 132.201 847.869 137.302C842.802 145.575 836.532 152.783 828.886 158.771C828.012 159.456 827.095 160.085 826.147 160.779C825.109 159.591 824.12 158.463 823.106 157.303C823.656 156.904 824.118 156.576 824.571 156.238C829.751 152.35 834.212 147.739 838.149 142.619C844.144 134.825 848.916 126.363 851.862 116.936C852.97 113.393 853.761 109.778 854.08 106.076C854.227 104.363 854.256 102.639 854.347 100.77V100.772ZM868.313 105.293C868.376 105.317 868.454 105.33 868.517 105.369C869.395 105.922 870.262 106.495 871.151 107.028C871.567 107.278 871.715 107.585 871.721 108.073C871.814 114.139 870.893 120.07 869.295 125.899C867.301 133.179 864.361 140.06 860.32 146.449C854.817 155.149 847.856 162.436 839.22 168.089C838.596 168.499 838.071 168.684 837.356 168.282C836.478 167.79 835.535 167.415 834.661 167.007C855.446 151.608 866.446 130.985 868.313 105.293ZM828.183 108.8C828.259 108.856 828.337 108.911 828.413 108.967C828.478 109.008 828.547 109.045 828.61 109.093C835.004 113.905 840.224 119.808 844.666 126.426C844.755 126.561 844.799 126.819 844.732 126.949C843.938 128.473 843.119 129.985 842.253 131.596C837.709 123.961 832.37 117.197 824.951 112.311C826.043 111.125 827.112 109.962 828.183 108.8ZM867.671 166.884C867.671 166.539 867.678 166.37 867.671 166.203C867.55 163.423 867.517 160.636 867.281 157.867C866.912 153.525 866.008 149.27 864.881 145.063C864.801 144.764 864.868 144.363 865.007 144.077C865.603 142.843 866.258 141.639 866.878 140.416C867.164 139.848 867.418 139.262 867.752 138.544C867.999 139.314 868.202 139.919 868.387 140.531C869.566 144.48 870.427 148.494 870.921 152.588C871.383 156.412 871.6 160.241 871.346 164.088C871.333 164.288 871.281 164.572 871.144 164.661C870.043 165.396 868.918 166.092 867.673 166.882L867.671 166.884ZM838.995 136.417C839.032 136.467 839.071 136.517 839.108 136.569C838.015 138.041 836.927 139.516 835.821 140.98C835.734 141.095 835.528 141.166 835.37 141.177C834.297 141.264 833.219 141.32 832.146 141.407C828.033 141.737 824.001 142.483 820.086 143.808C819.073 144.15 818.08 144.551 816.996 144.957C816.69 143.365 816.391 141.817 816.086 140.227C823.572 137.605 831.199 136.506 838.995 136.419V136.417ZM840.155 133.57C831.771 133.565 823.734 134.619 815.906 137.276C815.906 136.083 815.916 134.971 815.899 133.858C815.893 133.461 816.047 133.29 816.426 133.158C820.075 131.876 823.802 130.878 827.615 130.267C830.668 129.777 833.751 129.462 836.82 129.087C837.02 129.063 837.341 129.126 837.43 129.263C838.327 130.636 839.19 132.032 840.155 133.572V133.57ZM830.691 107.087C831.73 106.447 832.688 105.879 833.62 105.269C833.978 105.035 834.214 105.081 834.542 105.33C839.576 109.156 844.016 113.588 847.988 118.498C848.105 118.641 848.205 118.912 848.148 119.064C847.572 120.597 846.96 122.117 846.312 123.765C841.885 117.403 836.842 111.816 830.691 107.087ZM860.846 169.655C860.818 169.406 860.799 169.31 860.801 169.215C860.816 163.982 860.157 158.823 859.088 153.709C859.045 153.501 859.147 153.217 859.275 153.028C860.326 151.471 861.401 149.927 862.464 148.377C862.527 148.286 862.548 148.164 862.587 148.056C863.673 152.057 864.367 155.971 864.606 159.946C864.762 162.544 864.731 165.153 864.768 167.755C864.77 167.933 864.671 168.224 864.543 168.274C863.348 168.747 862.139 169.178 860.846 169.653V169.655ZM833.033 144.257C829.618 148.286 825.846 151.892 821.503 154.952C820.018 152.649 818.824 150.27 817.92 147.689C822.776 145.577 827.817 144.595 833.033 144.257ZM869.495 134.251C869.638 134.242 869.681 134.225 869.714 134.238C870.529 134.574 871.346 134.899 872.153 135.25C876.708 137.241 881.035 139.633 885.065 142.552C885.369 142.771 885.46 142.986 885.362 143.335C885.08 144.354 884.818 145.378 884.541 146.397C884.504 146.536 884.421 146.664 884.356 146.809C884.248 146.753 884.174 146.724 884.109 146.681C880.135 144.029 875.908 141.862 871.504 140.026C871.322 139.95 871.144 139.731 871.075 139.54C870.533 138.03 870.006 136.512 869.503 134.99C869.43 134.765 869.492 134.493 869.492 134.253L869.495 134.251ZM816.292 130.197C816.45 129.395 816.554 128.736 816.712 128.092C817.183 126.175 817.2 126.199 819.045 125.498C823.108 123.958 827.301 122.935 831.587 122.286C831.804 122.254 832.133 122.369 832.274 122.534C833.243 123.663 834.175 124.824 835.114 125.977C835.19 126.071 835.236 126.188 835.325 126.348C828.82 126.895 822.518 128.12 816.289 130.2L816.292 130.197ZM886.017 139.746C881.122 136.283 875.968 133.635 870.568 131.486C871.025 130.033 871.461 128.658 871.918 127.207C872.979 127.695 873.998 128.139 874.997 128.625C878.793 130.473 882.429 132.583 885.785 135.159C885.941 135.281 886.156 135.474 886.154 135.632C886.136 136.959 886.073 138.284 886.021 139.748L886.017 139.746ZM836.933 103.589C838.002 103.196 838.947 102.886 839.856 102.498C840.419 102.257 840.836 102.392 841.313 102.704C844.294 104.649 846.991 106.939 849.571 109.383C850.303 110.077 850.685 110.693 850.323 111.743C849.907 112.951 849.677 114.221 849.33 115.603C845.571 111.153 841.56 107.178 836.933 103.589ZM853.484 170.991C853.43 170.82 853.408 170.783 853.408 170.746C853.417 167.545 853.117 164.368 852.686 161.2C852.656 160.974 852.777 160.664 852.933 160.486C854.045 159.22 855.184 157.979 856.315 156.732C856.421 156.618 856.543 156.516 856.773 156.301C857.087 158.73 857.453 160.994 857.655 163.273C857.848 165.457 857.878 167.654 857.954 169.846C857.961 170.015 857.785 170.319 857.657 170.343C856.272 170.583 854.88 170.781 853.484 170.991ZM872.155 143.426C876.124 145.189 879.83 147.178 883.398 149.622C882.704 150.999 882.026 152.345 881.369 153.647C881.215 153.638 881.193 153.642 881.178 153.634C878.661 152.207 876.142 150.784 873.635 149.342C873.464 149.244 873.31 149.008 873.267 148.811C873.026 147.702 872.829 146.586 872.606 145.473C872.476 144.829 872.324 144.189 872.155 143.426ZM880.827 117.123C881.512 118.42 882.208 119.708 882.86 121.013C882.921 121.135 882.778 121.465 882.635 121.562C880.901 122.766 879.129 123.917 877.41 125.14C876.417 125.845 875.483 125.925 874.481 125.216C874.292 125.084 874.056 125.021 873.841 124.926C872.658 124.388 872.673 124.39 872.907 123.117C872.992 122.659 873.193 122.362 873.603 122.119C874.594 121.53 875.576 120.916 876.521 120.254C877.943 119.259 879.333 118.216 880.829 117.125L880.827 117.123ZM823.077 114.514C825.467 115.997 827.565 117.728 829.443 119.563C825.768 120.543 822.113 121.519 818.492 122.484C819.63 119.71 821.15 117.034 823.077 114.514ZM850.65 171.015C847.569 170.963 844.734 170.579 841.982 169.835C844.695 167.686 847.377 165.561 850.169 163.349C850.329 165.908 850.488 168.417 850.65 171.015ZM874.394 162.1C874.238 158.927 874.086 155.83 873.928 152.603C875.899 153.764 877.822 154.893 879.773 156.043C878.149 158.344 876.402 160.326 874.394 162.1ZM885.872 131.583C883.604 130.182 881.38 128.807 879.181 127.45C880.827 126.34 882.468 125.231 884.144 124.099C884.985 126.556 885.614 129.018 885.872 131.583ZM873.883 118.7C874.156 115.668 874.414 112.794 874.676 109.867C876.324 111.333 877.783 112.968 879.173 114.824C877.408 116.117 875.682 117.381 873.88 118.7H873.883ZM844.493 101.288C846.772 100.885 849.048 100.635 851.487 100.705C851.396 102.799 851.309 104.81 851.22 106.874C848.901 104.948 846.713 103.131 844.495 101.29L844.493 101.288Z" fill="#FF7841"/>
</svg>
