<svg width="351" height="119" viewBox="0 0 351 119" fill="none" xmlns="http://www.w3.org/2000/svg">
<path d="M10.5082 75.3169C9.2951 82.0229 10.2075 88.4447 13.5358 94.3776C18.5461 103.306 26.2288 108.374 36.4467 109.425C41.7922 109.975 46.9426 109.054 51.7282 106.604C60.8511 101.935 66.2371 94.4852 67.7323 84.3368C68.5884 78.5242 67.6749 72.9027 64.9598 67.6979C59.8978 57.9968 51.8542 52.5909 40.9174 51.6744C35.202 51.1949 29.8015 52.4574 24.8284 55.294C18.1943 59.0796 13.6882 64.6433 11.3436 71.9316C11.2894 72.0999 11.2357 72.2697 11.1821 72.4396C10.8866 73.1086 10.5097 75.3163 10.5097 75.3163L10.5082 75.3169ZM13.13 73.3071C21.2184 77.9127 29.8403 80.4267 38.9784 81.2149C48.1262 82.0042 57.0299 80.9194 65.6991 77.518C65.7472 78.3906 65.782 79.2219 65.8443 80.0498C65.868 80.3535 65.7714 80.4847 65.4819 80.6038C62.0547 82.015 58.5222 83.0669 54.8966 83.8266C50.4591 84.7561 45.9773 85.2167 41.446 85.1053C33.4607 84.9122 25.817 83.1727 18.5596 79.8413C16.5806 78.9334 14.7063 77.796 12.7924 76.7476C12.6596 76.6754 12.5034 76.4483 12.5243 76.3224C12.6981 75.338 12.9115 74.361 13.1286 73.3041L13.13 73.3071ZM64.4263 71.7984C64.6925 72.8225 64.9438 73.8498 65.2339 74.8666C65.3291 75.1995 65.2568 75.3561 64.9358 75.4659C63.4081 75.9887 61.901 76.5766 60.3582 77.0463C57.176 78.0169 53.9133 78.6151 50.6063 78.9681C46.068 79.4525 41.5352 79.4056 37.0053 78.85C29.6569 77.9469 22.6676 75.8714 16.091 72.4536C15.3387 72.0634 14.6119 71.6253 13.8304 71.1867C14.3274 70.0896 14.798 69.0464 15.283 67.9748C15.7343 68.2311 16.1078 68.4483 16.486 68.656C20.8245 71.024 25.4376 72.6651 30.2387 73.7807C37.5477 75.4799 44.9339 76.1185 52.4132 75.1841C55.2247 74.8331 57.9858 74.2396 60.6577 73.2904C61.8943 72.8511 63.1006 72.3255 64.4278 71.7977L64.4263 71.7984ZM65.702 82.9287C65.7053 82.9799 65.721 83.0382 65.7137 83.0942C65.6073 83.879 65.4839 84.6623 65.3944 85.4484C65.3528 85.8164 65.1855 86.0161 64.8487 86.175C60.6652 88.1577 56.2543 89.3931 51.7003 90.1266C46.0132 91.0432 40.3043 91.1771 34.589 90.3904C26.8061 89.3197 19.5439 86.7885 12.8866 82.5784C12.4045 82.2744 12.1106 81.9682 12.163 81.3444C12.2273 80.5789 12.1897 79.8053 12.1966 79.0695C29.4646 88.6366 47.2674 89.7559 65.702 82.9287ZM50.5771 56.1646C50.5619 56.2351 50.549 56.3064 50.5338 56.377C50.5257 56.4352 50.5221 56.495 50.5088 56.5538C49.1881 62.5161 46.7389 68.0087 43.5466 73.187C43.4813 73.2912 43.3157 73.4029 43.2041 73.3974C41.8943 73.3283 40.5853 73.2371 39.1927 73.1457C43.0593 67.5751 46.0687 61.7274 47.1164 55.0295C48.2858 55.4134 49.4311 55.7882 50.5771 56.1646ZM22.7204 101.958C22.9599 101.849 23.0795 101.8 23.1934 101.743C25.086 100.779 27.0112 99.8757 28.86 98.8359C31.7589 97.2071 34.4283 95.2338 36.9939 93.1204C37.1764 92.9701 37.4763 92.8899 37.719 92.8958C38.7646 92.9197 39.8076 92.9939 40.8532 93.0378C41.3383 93.0569 41.8252 93.048 42.4293 93.0529C41.9727 93.468 41.6169 93.8008 41.2505 94.1222C38.8805 96.1901 36.3646 98.0572 33.6772 99.6952C31.1677 101.225 28.5762 102.586 25.824 103.627C25.6813 103.681 25.4675 103.734 25.3625 103.668C24.5037 103.135 23.6644 102.574 22.7226 101.959L22.7204 101.958ZM34.8139 72.4068C34.791 72.4482 34.7687 72.4911 34.7442 72.5331C33.3759 72.2398 32.0075 71.9502 30.6412 71.6451C30.5339 71.6212 30.4191 71.5007 30.3615 71.3942C29.9619 70.6763 29.5821 69.9457 29.1825 69.2278C27.6531 66.4754 25.8598 63.9105 23.7014 61.6099C23.1433 61.015 22.5507 60.4522 21.9262 59.8275C22.9351 59.1119 23.916 58.4145 24.9234 57.6995C29.1116 62.0701 32.287 67.02 34.8124 72.4075L34.8139 72.4068ZM37.1584 72.3121C34.5104 66.4877 31.2371 61.2388 26.9165 56.6413C27.7449 56.2641 28.521 55.9199 29.2883 55.5561C29.5618 55.426 29.7295 55.4788 29.9414 55.7005C31.9853 57.8295 33.8566 60.1026 35.4872 62.558C36.7929 64.5232 37.9861 66.5651 39.2174 68.5787C39.2971 68.7097 39.3549 68.9525 39.2881 69.0574C38.6184 70.1149 37.9213 71.1558 37.1569 72.3128L37.1584 72.3121ZM52.5602 57.3651C53.3329 57.8841 54.0306 58.37 54.7486 58.8248C55.0244 58.9992 55.0675 59.1778 54.9978 59.484C53.9326 64.1902 52.2578 68.6757 50.1036 72.9869C50.0412 73.1135 49.8845 73.2684 49.7612 73.2773C48.5139 73.3615 47.2647 73.4176 45.915 73.4885C48.9345 68.4017 51.22 63.1327 52.5602 57.3651ZM18.6374 98.0942C18.8017 97.9958 18.8618 97.952 18.9287 97.9234C22.5681 96.2793 25.943 94.1902 29.1568 91.8308C29.2877 91.7349 29.5172 91.7158 29.6887 91.745C31.1027 91.983 32.5151 92.2417 33.928 92.4892C34.0111 92.5041 34.1023 92.4808 34.19 92.4736C31.7544 94.4932 29.2551 96.2128 26.5695 97.6353C24.8144 98.5652 22.9928 99.3691 21.197 100.218C21.0742 100.275 20.8408 100.298 20.7657 100.225C20.0596 99.5446 19.3773 98.8408 18.6389 98.0935L18.6374 98.0942ZM27.4837 70.7447C23.6053 69.6471 19.9076 68.1673 16.4092 66.1187C17.5392 64.3589 18.8138 62.777 20.3204 61.333C23.3231 64.0382 25.5993 67.2286 27.4837 70.7447ZM45.9628 92.9058C46.0141 93.0025 46.0399 93.0271 46.0411 93.0538C46.0654 93.7263 46.0979 94.3968 46.1089 95.0681C46.1665 98.8614 45.8735 102.623 45.1205 106.346C45.0643 106.626 44.944 106.757 44.6707 106.8C43.8736 106.926 43.0797 107.068 42.284 107.197C42.176 107.215 42.0611 107.199 41.9396 107.199C41.9445 107.106 41.9407 107.046 41.9503 106.987C42.5358 103.388 42.7038 99.767 42.5872 96.1278C42.5823 95.9773 42.6783 95.7846 42.7889 95.6761C43.6658 94.8223 44.5536 93.9764 45.452 93.1457C45.5853 93.0232 45.7935 92.9811 45.9606 92.905L45.9628 92.9058ZM31.9549 54.6711C32.5622 54.5273 33.053 54.3911 33.5504 54.2974C35.0307 54.018 35.0196 54.0376 36.0895 55.0975C38.4437 57.4326 40.4804 60.0212 42.2861 62.7932C42.3773 62.9335 42.4016 63.1988 42.3317 63.3487C41.8534 64.3791 41.3423 65.3935 40.8379 66.4103C40.7971 66.4925 40.7301 66.5612 40.6468 66.6736C38.2106 62.3289 35.3667 58.3389 31.9527 54.6703L31.9549 54.6711ZM47.3705 106.119C48.228 101.624 48.4376 97.2075 48.2226 92.7769C49.3765 92.6352 50.4692 92.5031 51.6215 92.3621C51.6179 93.2528 51.6313 94.1011 51.6099 94.9489C51.527 98.1698 51.2111 101.362 50.4829 104.508C50.4479 104.655 50.3817 104.865 50.271 104.913C49.3437 105.321 48.4035 105.696 47.3704 106.123L47.3705 106.119ZM56.9634 60.5943C57.574 61.2126 58.0883 61.771 58.6452 62.2792C58.9906 62.5946 59.0288 62.9263 58.9628 63.3563C58.5543 66.0419 57.8165 68.6393 56.9348 71.204C56.6845 71.9324 56.3774 72.3922 55.5339 72.4726C54.5633 72.5655 53.6079 72.8077 52.5388 73.0036C54.4409 68.9853 55.9335 64.9426 56.9634 60.5943ZM15.3814 93.4028C15.4833 93.311 15.502 93.2843 15.5277 93.2726C17.7536 92.2665 19.8656 91.0541 21.9298 89.7526C22.0769 89.6602 22.3307 89.6465 22.5035 89.6987C23.7349 90.0707 24.9563 90.469 26.1803 90.8608C26.2937 90.8982 26.4029 90.9503 26.6247 91.0421C25.0371 92.0284 23.5804 92.9988 22.0611 93.8595C20.6054 94.6841 19.0891 95.3998 17.5903 96.1458C17.4749 96.2038 17.2085 96.1778 17.1515 96.0965C16.5462 95.2104 15.969 94.306 15.3814 93.4028ZM40.4311 97.6548C40.4617 100.969 40.2521 104.172 39.683 107.423C38.5071 107.377 37.3572 107.331 36.2457 107.286C36.2031 107.177 36.1932 107.163 36.1944 107.15C36.3896 104.95 36.5811 102.751 36.7903 100.554C36.8039 100.404 36.9194 100.222 37.0428 100.13C37.7364 99.6124 38.4497 99.1222 39.1518 98.6153C39.558 98.3213 39.9544 98.0136 40.4311 97.6548ZM61.4424 95.361C60.7583 96.2469 60.0837 97.1376 59.3833 98.0036C59.3181 98.0842 59.0439 98.089 58.9309 98.0205C57.5465 97.1964 56.1866 96.3303 54.7934 95.5229C53.9899 95.0561 53.6387 94.4324 53.8146 93.5125C53.8468 93.3397 53.8158 93.1557 53.8142 92.9764C53.8134 91.9842 53.8167 91.9954 54.7749 91.7555C55.1195 91.6695 55.3896 91.7156 55.6878 91.9234C56.4108 92.4251 57.1476 92.9132 57.9059 93.3606C59.047 94.0337 60.2109 94.6691 61.4416 95.3632L61.4424 95.361ZM44.9937 54.4252C44.7189 56.5537 44.1805 58.5585 43.4999 60.4427C41.6571 58.2003 39.8235 55.97 38.0084 53.7604C40.2948 53.6739 42.634 53.8833 44.9937 54.4252ZM14.4689 91.4422C13.5309 89.286 12.9008 87.195 12.5475 85.0489C14.8978 86.2531 17.2219 87.4438 19.6412 88.6839C17.9146 89.6045 16.2219 90.5078 14.4689 91.4422ZM28.169 105.115C30.3233 104.003 32.4262 102.919 34.6175 101.789C34.4348 103.524 34.2581 105.217 34.0768 106.936C31.9652 106.536 30.036 105.949 28.169 105.115ZM52.9941 103.437C53.25 101.419 53.5016 99.4396 53.7494 97.4835C55.0409 98.2753 56.3295 99.0648 57.6457 99.8709C56.2051 101.232 54.6944 102.447 52.9941 103.437ZM58.1516 91.0363C60.3437 90.2674 62.421 89.538 64.5374 88.7945C64.0402 90.4025 63.3659 91.9329 62.516 93.4852C61.0602 92.6681 59.6364 91.8692 58.1509 91.0348L58.1516 91.0363ZM60.952 65.1176C61.9527 66.5727 62.8457 68.0749 63.5688 69.7909C62.0849 70.3901 60.6612 70.9655 59.1992 71.5566C59.8032 69.3364 60.3737 67.2424 60.9512 65.1198L60.952 65.1176Z" fill="#FF7841"/>
<path d="M63.0002 88.3794C68.0002 84.7127 84.7002 77.5794 111.5 78.3794C145 79.3794 182.5 94.3794 226.5 73.8794C270.5 53.3794 327.5 73.8794 324 99.3794C320.5 124.879 248.681 96.576 294.5 78.3794C331 63.8838 368.5 0.385178 339 1.38518" stroke="#FF7841" stroke-width="2"/>
</svg>
