<svg width="253" height="55" viewBox="0 0 253 55" fill="none" xmlns="http://www.w3.org/2000/svg">
<path d="M252.5 27.6108C252.5 32.9694 249.163 37.0507 242.876 40.1708C236.578 43.2961 227.42 45.3976 216.034 46.8021C193.27 49.6099 161.807 49.6108 127 49.6108C92.193 49.6108 60.7293 49.6099 37.9655 46.8021C26.5791 45.3976 17.4217 43.2961 11.1237 40.1708C4.83637 37.0507 1.49976 32.9694 1.49976 27.6108C1.49976 22.2523 4.83637 18.171 11.1237 15.0509C17.4217 11.9255 26.5791 9.82406 37.9655 8.41958C60.7293 5.61173 92.193 5.61084 127 5.61084C161.807 5.61084 193.27 5.61173 216.034 8.41958C227.42 9.82406 236.578 11.9255 242.876 15.0509C249.163 18.171 252.5 22.2523 252.5 27.6108Z" stroke="#FF7841"/>
<path d="M251.614 23.3464C251.825 28.7512 248.656 32.9744 242.513 36.3247C236.358 39.6813 227.312 42.1007 216.017 43.8913C193.434 47.4711 162.067 48.5094 127.367 49.6569C92.6669 50.8045 61.3001 51.841 38.496 49.7622C27.0895 48.7224 17.8782 46.9068 11.477 43.9654C5.08801 41.0296 1.5976 37.0266 1.38627 31.6218C1.17493 26.217 4.34367 21.9937 10.4869 18.6435C16.6418 15.2869 25.6875 12.8675 36.9834 11.0769C59.5662 7.49705 90.9329 6.4588 125.633 5.31122C160.333 4.16363 191.7 3.1272 214.504 5.206C225.91 6.24581 235.122 8.0614 241.523 11.0028C247.912 13.9386 251.402 17.9416 251.614 23.3464Z" stroke="#FF7841"/>
</svg>
