<svg width="45" height="45" viewBox="0 0 45 45" fill="none" xmlns="http://www.w3.org/2000/svg">
<path d="M23.4271 0.474121C24.0395 0.474202 24.6305 0.699012 25.0881 1.10591C25.5456 1.51281 25.838 2.07349 25.9096 2.68162L25.9271 2.97412V42.9741C25.9264 43.6113 25.6824 44.2242 25.245 44.6875C24.8076 45.1509 24.2097 45.4297 23.5736 45.467C22.9375 45.5044 22.3112 45.2974 21.8225 44.8885C21.3339 44.4795 21.0199 43.8994 20.9446 43.2666L20.9271 42.9741V2.97412C20.9271 2.31108 21.1905 1.67519 21.6594 1.20635C22.1282 0.737513 22.7641 0.474121 23.4271 0.474121ZM13.4271 7.97412C14.0902 7.97412 14.726 8.23751 15.1949 8.70635C15.6637 9.1752 15.9271 9.81108 15.9271 10.4741V35.4741C15.9271 36.1372 15.6637 36.773 15.1949 37.2419C14.726 37.7107 14.0902 37.9741 13.4271 37.9741C12.7641 37.9741 12.1282 37.7107 11.6594 37.2419C11.1905 36.773 10.9271 36.1372 10.9271 35.4741V10.4741C10.9271 9.81108 11.1905 9.1752 11.6594 8.70635C12.1282 8.23751 12.7641 7.97412 13.4271 7.97412ZM33.4271 7.97412C34.0902 7.97412 34.7261 8.23751 35.1949 8.70635C35.6637 9.1752 35.9271 9.81108 35.9271 10.4741V35.4741C35.9271 36.1372 35.6637 36.773 35.1949 37.2419C34.7261 37.7107 34.0902 37.9741 33.4271 37.9741C32.7641 37.9741 32.1282 37.7107 31.6594 37.2419C31.1905 36.773 30.9271 36.1372 30.9271 35.4741V10.4741C30.9271 9.81108 31.1905 9.1752 31.6594 8.70635C32.1282 8.23751 32.7641 7.97412 33.4271 7.97412ZM3.42712 15.4741C4.09017 15.4741 4.72605 15.7375 5.19489 16.2064C5.66373 16.6752 5.92712 17.3111 5.92712 17.9741V27.9741C5.92712 28.6372 5.66373 29.273 5.19489 29.7419C4.72605 30.2107 4.09017 30.4741 3.42712 30.4741C2.76408 30.4741 2.1282 30.2107 1.65936 29.7419C1.19052 29.273 0.927124 28.6372 0.927124 27.9741V17.9741C0.927124 17.3111 1.19052 16.6752 1.65936 16.2064C2.1282 15.7375 2.76408 15.4741 3.42712 15.4741ZM43.4271 15.4741C44.0395 15.4742 44.6305 15.699 45.0881 16.1059C45.5456 16.5128 45.838 17.0735 45.9096 17.6816L45.9271 17.9741V27.9741C45.9264 28.6113 45.6824 29.2242 45.245 29.6875C44.8076 30.1509 44.2097 30.4297 43.5736 30.4671C42.9375 30.5044 42.3112 30.2974 41.8225 29.8885C41.3339 29.4795 41.0199 28.8994 40.9446 28.2666L40.9271 27.9741V17.9741C40.9271 17.3111 41.1905 16.6752 41.6594 16.2064C42.1282 15.7375 42.7641 15.4741 43.4271 15.4741Z" fill="#FF7841"/>
</svg>
