<svg width="203" height="101" viewBox="0 0 203 101" fill="none" xmlns="http://www.w3.org/2000/svg">
<path d="M92.0033 77.9592C90.8814 77.9592 89.754 77.8562 88.6517 77.653C84.5271 76.921 80.7624 74.8082 78.0499 71.7074C76.702 70.1681 75.6527 68.4339 74.9271 66.5578C74.1764 64.6149 73.7969 62.5718 73.7969 60.4814C73.7969 60.4006 73.7969 60.3227 73.7997 60.2448V60.1167C73.7997 60.036 73.7969 59.9525 73.7969 59.8718C73.7969 57.4306 74.2769 55.0618 75.2285 52.8322C76.1466 50.6777 77.4583 48.7432 79.1299 47.0814C80.8015 45.4196 82.7494 44.1141 84.9178 43.2039C87.1615 42.2603 89.5475 41.7815 92.0061 41.7815C94.1326 41.7815 96.2172 42.1434 98.2014 42.856C100.116 43.5435 101.893 44.5428 103.481 45.826C105.055 47.0981 106.398 48.6068 107.469 50.3159C108.502 51.9609 109.255 53.7452 109.707 55.6213L109.247 55.7549L81.2257 63.7993L81.2926 64.1222C81.6443 65.7979 82.2694 67.4152 83.1485 68.9322C84.5019 71.2704 86.3829 73.2216 88.5847 74.5744C90.7363 75.8938 93.1028 76.5925 95.4247 76.5925C96.9037 76.5925 98.3214 76.3114 99.6414 75.7546H99.6498L99.6581 75.7491C101.132 75.0476 102.502 74.1402 103.733 73.0574L104.229 73.2773C100.872 76.303 96.5549 77.962 92.0061 77.962L92.0033 77.9592ZM80.9745 61.6644C80.994 62.068 81.0303 62.4799 81.0806 62.8919L81.1336 63.3039L102.859 57.0659L102.82 56.7625C102.32 52.8238 101.017 49.2191 99.1503 46.611C98.2098 45.2971 97.1577 44.2533 96.0051 43.5324C94.0405 42.302 92.74 42.302 91.6852 42.302C90.6303 42.302 89.2991 42.5498 87.608 43.7717C86.3075 44.7126 85.1187 46.0181 84.114 47.6993C82.0629 51.1203 80.9354 55.6603 80.9354 60.4814C80.9354 60.6539 80.9354 60.8349 80.941 61.052L80.9522 61.6755L80.9745 61.6616V61.6644Z" fill="#bbbbbb"/>
<path d="M139.735 77.7421C140.31 77.6614 141.518 77.4053 142.738 76.5925C143.706 75.9467 144.477 75.0838 145.029 74.0289C145.713 72.7262 146.059 71.1256 146.059 69.2746V54.4104C146.059 52.7542 145.495 49.8482 143.904 47.1092C141.683 43.2874 138.524 42.0515 136.931 42.0515H136.858C135.052 42.0599 132.105 43.2874 129.884 47.1092C128.293 49.8482 127.73 52.7542 127.73 54.4104V69.2801C127.73 71.1312 128.076 72.7289 128.759 74.0344C129.312 75.0894 130.082 75.9523 131.051 76.5981C132.27 77.4109 133.481 77.7031 134.053 77.7811V77.8423L114.083 77.8534V77.7783C116.12 77.692 117.803 76.9015 118.964 75.4234C120.214 73.8312 120.851 71.5571 120.851 68.6566V56.3227C120.851 54.6999 120.574 53.3026 120.027 52.1669C119.564 51.201 118.903 50.4161 118.063 49.8343C116.589 48.8127 114.94 48.6596 114.086 48.6596C114.055 48.6596 114.025 48.6596 113.997 48.6596V48.4787C114.965 48.4453 117.597 48.1697 121.501 46.3382C122.913 45.6757 124.975 44.4927 126.795 42.6194C127.18 42.2241 127.49 41.8622 127.73 41.5588V43.755L128.24 43.5157C130.478 42.4607 133.046 41.8344 135.873 41.6479C136.063 41.634 136.255 41.6312 136.445 41.6312H137.246C137.5 41.6312 137.757 41.6368 138.011 41.6563C141.479 41.8984 144.619 42.8281 147.114 44.3563C150.652 46.5247 152.938 50.1962 152.938 53.7062V68.6566C152.938 71.5543 153.571 73.7895 154.824 75.3817C155.985 76.8597 157.668 77.6781 159.705 77.7644V77.8507H139.735V77.7421Z" fill="#bbbbbb"/>
<path d="M179.455 78.0733C175.835 77.8757 172.554 76.9321 169.969 75.3483C166.431 73.1799 164.145 69.5084 164.145 65.9983V51.0479C164.145 48.1503 163.512 45.8733 162.259 44.2811C161.098 42.8031 159.415 42.0153 157.378 41.9318V41.8121H171.075L171.024 65.2858C171.024 66.942 171.588 69.848 173.179 72.587C175.4 76.4088 178.216 77.6113 180.153 77.6447H180.225C182.02 77.628 184.978 76.4088 187.199 72.587C188.79 69.848 189.354 66.942 189.354 65.2858V50.4216C189.354 48.5706 189.008 46.9728 188.324 45.6673C187.771 44.6124 187.001 43.7495 186.033 43.1037C184.813 42.2909 183.602 42.0348 183.03 41.9541V41.8177L203 41.7759V41.8956C200.963 41.9819 199.28 42.8003 198.119 44.2784C196.869 45.8705 196.233 48.1475 196.233 51.0451V65.9956C196.233 69.5056 193.947 73.1771 190.408 75.3455C187.824 76.9293 184.545 77.8729 180.923 78.0706H179.455V78.0733Z" fill="#bbbbbb"/>
<path d="M53.1988 77.8729V77.7894C53.7737 77.7087 54.9821 77.4526 56.2016 76.6398C57.17 75.994 57.9402 75.1311 58.4928 74.0762C59.1765 72.7735 59.5225 71.1729 59.5225 69.3219L59.503 54.4773C59.503 52.5984 58.7858 49.5281 57.1867 46.9032C55.8611 44.7321 53.4835 42.1322 49.6714 42.0766H49.6602C46.8919 42.1434 44.4528 43.6047 42.6082 46.3076C40.97 48.707 40.0017 51.8357 39.9682 53.4446C39.9682 53.4446 39.9682 53.6255 39.9682 53.6672V68.6177C39.9682 71.5153 40.6017 73.7923 41.8547 75.3844C43.0156 76.8625 44.6984 77.6809 46.7356 77.7672V77.8868L26.7655 77.8451V77.7087C27.3403 77.628 28.5487 77.3719 29.7682 76.5591C30.7366 75.9133 31.5068 75.0504 32.0594 73.9954C32.7431 72.6927 33.0892 71.0922 33.0892 69.2412C33.0892 69.2412 33.0305 53.542 33.0333 53.4279V53.375C32.8352 51.51 32.0454 48.6596 30.4213 46.2547C28.5934 43.5491 26.1738 42.1601 23.4222 42.0654H23.3999C19.652 42.1935 17.3134 44.7042 16.013 46.8615C14.439 49.4724 13.733 52.5149 13.733 54.3743V69.2384C13.733 71.0894 14.079 72.6872 14.7627 73.9927C15.3153 75.0476 16.0855 75.9105 17.0539 76.5563C18.2734 77.3691 19.4846 77.6252 20.0567 77.7059V77.8423L0.0865127 77.8841V77.7644C2.12371 77.6781 3.8065 76.8597 4.96742 75.3817C6.21765 73.7895 6.85392 71.5125 6.85392 68.6149V56.2838C6.85392 54.661 6.57764 53.2636 6.03067 52.1279C5.56742 51.1621 4.90602 50.3771 4.06603 49.7953C2.59255 48.7738 0.943251 48.6207 0.0893018 48.6207C0.0586043 48.6207 0.0279068 48.6207 0 48.6207V48.4398C0.968368 48.4063 3.59998 48.1308 7.50415 46.2992C10.0604 45.0995 11.7934 43.6131 12.7981 42.5804C13.1832 42.1851 13.493 41.8233 13.733 41.5199V43.7161L14.2437 43.4767C16.8278 42.2603 19.8334 41.7036 23.1794 41.6451H23.6427C27.678 41.7147 31.3087 42.5804 34.144 44.3173C34.9198 44.7933 35.6454 45.3472 36.3068 45.9652L36.5496 46.1934L36.7952 45.968C37.4287 45.3834 38.1236 44.8601 38.8547 44.412C41.7459 42.6388 45.4603 41.6841 49.5905 41.6479H49.8221C53.9523 41.6841 57.6667 42.6388 60.5579 44.412C64.0965 46.5803 66.382 50.2518 66.382 53.7619L66.4016 68.6928C66.4016 71.5905 67.035 73.8674 68.2881 75.4596C69.449 76.9377 70.8527 77.7003 72.8899 77.7866V77.8785L53.1988 77.8674V77.8729Z" fill="#bbbbbb"/>
<path d="M95.9186 20.4011V0.654663C95.9186 0.654663 95.2014 1.91004 93.3596 2.77572C91.5149 3.6414 90.4294 3.57738 90.4294 3.57738V3.92254C90.4294 3.92254 93.0331 3.6414 93.0331 6.69217C93.0331 6.74784 93.0331 6.80629 93.0359 6.86475H93.0331V20.1645C93.0331 22.3385 92.0563 23.5075 90.4629 23.5075V23.8221L98.3214 23.8054V23.4964C98.3214 23.4964 95.9186 23.3879 95.9186 20.4011Z" fill="#bbbbbb"/>
<path d="M112.026 15.3546L112.47 15.2265C111.77 12.0867 108.954 9.73736 105.583 9.73736C101.687 9.73736 98.5279 12.8744 98.5279 16.7463C98.5279 16.7853 98.5279 16.8243 98.5279 16.8632C98.5279 16.9022 98.5279 16.9384 98.5279 16.9774C98.5279 20.2953 101.009 23.0538 104.285 23.6356C104.707 23.7135 105.139 23.7553 105.583 23.7553C107.48 23.7553 109.202 23.0093 110.472 21.7985L110.014 21.5953C109.534 22.0267 109.004 22.383 108.432 22.6558C106.339 23.5354 103.696 22.4749 102.334 20.12C102 19.541 101.773 18.937 101.645 18.3329L112.026 15.3518V15.3546ZM101.517 17.1889C101.517 17.1221 101.517 17.0497 101.517 16.9774C101.517 13.2391 103.333 10.2078 105.574 10.2078C105.159 10.2078 104.751 10.244 104.358 10.308C104.76 10.2328 105.17 10.1939 105.586 10.1939C106.066 10.1939 106.537 10.244 106.995 10.3442C106.565 10.2607 106.124 10.2133 105.672 10.2078C107.589 10.2746 109.18 12.5571 109.562 15.5828L101.57 17.8764C101.539 17.6454 101.525 17.4144 101.525 17.1889H101.517Z" fill="#bbbbbb"/>
<path d="M9.82884 100.253C9.80093 100.253 9.77303 100.236 9.74512 100.205C9.71721 100.175 9.69768 100.147 9.68093 100.119C9.51628 99.6708 9.34884 99.2227 9.18419 98.7801C9.01954 98.3375 8.85489 97.8922 8.69024 97.4412L8.40559 100.189C8.40001 100.239 8.38605 100.278 8.35536 100.305C8.32745 100.333 8.28559 100.347 8.22978 100.347H7.67164C7.56559 100.347 7.51257 100.289 7.51257 100.175L7.94792 95.9576C7.95071 95.9158 7.97024 95.8769 8.00094 95.8463C8.03164 95.8156 8.07071 95.7989 8.12094 95.7989H8.83535C8.87721 95.7989 8.9107 95.8129 8.93861 95.8379C8.96652 95.863 8.98605 95.8964 9.0028 95.9381C9.08652 96.1719 9.17303 96.4113 9.26233 96.6535C9.35163 96.8957 9.43814 97.1323 9.52465 97.3661L10.0884 98.9054L11.1712 95.9409C11.1851 95.8936 11.2074 95.8602 11.2381 95.8351C11.2688 95.8129 11.3051 95.7989 11.3442 95.7989H12.0558C12.1032 95.7989 12.1423 95.8156 12.173 95.8463C12.2037 95.8769 12.2232 95.9158 12.226 95.9576L12.6614 100.183C12.6614 100.236 12.6474 100.278 12.6195 100.303C12.5916 100.328 12.5525 100.344 12.5023 100.344H11.9442C11.8912 100.344 11.8493 100.331 11.8214 100.303C11.7935 100.275 11.7767 100.236 11.7712 100.186L11.4837 97.4384L10.5014 100.097C10.4846 100.127 10.4623 100.161 10.4316 100.194C10.4009 100.228 10.3702 100.247 10.3423 100.247H9.82326L9.82884 100.253Z" fill="#bbbbbb"/>
<path d="M18.0614 98.0814C18.0614 97.8643 18.0893 97.6583 18.1451 97.4579C18.2009 97.2603 18.279 97.071 18.3823 96.8984C18.4855 96.7231 18.6055 96.5644 18.7479 96.4224C18.8902 96.2805 19.0493 96.158 19.2223 96.0578C19.3953 95.9576 19.5823 95.8797 19.7832 95.8212C19.9841 95.7627 20.1906 95.7377 20.4083 95.7377C20.626 95.7377 20.8297 95.7655 21.0306 95.8212C21.2316 95.8769 21.4186 95.9548 21.5916 96.0578C21.7646 96.158 21.9237 96.2805 22.0688 96.4224C22.2111 96.5644 22.3339 96.7231 22.4344 96.8984C22.5348 97.0738 22.6158 97.2603 22.6716 97.4579C22.7274 97.6556 22.7553 97.8643 22.7553 98.0814C22.7553 98.2986 22.7274 98.5045 22.6716 98.705C22.6158 98.9026 22.5376 99.0891 22.4344 99.2617C22.3339 99.4342 22.2111 99.5901 22.0688 99.7321C21.9265 99.874 21.7674 99.9965 21.5916 100.097C21.4186 100.2 21.2316 100.278 21.0306 100.333C20.8297 100.389 20.6232 100.417 20.4083 100.417C20.1934 100.417 19.9841 100.389 19.7832 100.333C19.5851 100.278 19.3981 100.2 19.2223 100.097C19.0493 99.9937 18.8902 99.874 18.7479 99.7321C18.6055 99.5901 18.4828 99.4342 18.3823 99.2617C18.279 99.0891 18.2009 98.9026 18.1451 98.705C18.0893 98.5045 18.0614 98.2986 18.0614 98.0814ZM18.9739 98.0814C18.9739 98.2874 19.0102 98.4823 19.08 98.6604C19.1497 98.8413 19.2502 99 19.3758 99.1336C19.5041 99.2672 19.652 99.3758 19.8279 99.4509C20.0009 99.5289 20.1934 99.5679 20.4027 99.5679C20.612 99.5679 20.799 99.5289 20.9748 99.4509C21.1506 99.373 21.3013 99.2672 21.4269 99.1336C21.5525 99 21.653 98.8413 21.7255 98.6604C21.7981 98.4795 21.8344 98.2874 21.8344 98.0814C21.8344 97.8755 21.7981 97.6778 21.7255 97.4969C21.653 97.316 21.5553 97.1573 21.4269 97.0209C21.2986 96.8873 21.1479 96.7787 20.9748 96.7008C20.8018 96.6229 20.6093 96.5839 20.4027 96.5839C20.1962 96.5839 20.0037 96.6229 19.8279 96.7008C19.652 96.7787 19.5041 96.8873 19.3758 97.0209C19.2502 97.1545 19.1497 97.3132 19.08 97.4969C19.0102 97.6778 18.9739 97.8727 18.9739 98.0814Z" fill="#bbbbbb"/>
<path d="M32.3385 98.0814C32.3385 98.2986 32.3106 98.5045 32.2548 98.6994C32.199 98.8942 32.1208 99.0752 32.0176 99.245C31.9143 99.4148 31.7943 99.5651 31.652 99.7015C31.5097 99.8379 31.3534 99.9548 31.1804 100.049C31.0073 100.144 30.8204 100.219 30.6194 100.272C30.4185 100.325 30.212 100.35 29.9971 100.35H28.585C28.5683 100.35 28.5515 100.35 28.5348 100.347C28.5181 100.347 28.5013 100.339 28.4874 100.331C28.4734 100.322 28.4595 100.311 28.4511 100.294C28.4427 100.278 28.4371 100.255 28.4371 100.228V95.9492C28.4371 95.8463 28.4874 95.7962 28.585 95.7962H29.9971C30.212 95.7962 30.4185 95.8268 30.6194 95.8797C30.8176 95.9325 31.0046 96.0077 31.1776 96.1051C31.3506 96.2026 31.5097 96.3195 31.652 96.4558C31.7943 96.5922 31.9171 96.7453 32.0176 96.9151C32.118 97.0849 32.199 97.2659 32.2548 97.4635C32.3106 97.6583 32.3385 97.8643 32.3385 98.0787V98.0814ZM29.3413 96.6284V99.515H29.9273C30.1311 99.515 30.3236 99.4788 30.505 99.4092C30.6864 99.3396 30.8427 99.2394 30.9794 99.1141C31.1134 98.9889 31.2222 98.8358 31.3004 98.6604C31.3785 98.4851 31.4176 98.293 31.4176 98.0814C31.4176 97.8699 31.3785 97.6778 31.3004 97.4997C31.2222 97.3215 31.1134 97.1684 30.9794 97.0404C30.8455 96.9124 30.6864 96.8121 30.505 96.7398C30.3236 96.6674 30.1311 96.6312 29.9273 96.6284H29.3413Z" fill="#bbbbbb"/>
<path d="M37.9227 95.952C37.9227 95.8546 37.9673 95.8045 38.0566 95.8045H41.0147C41.0678 95.8045 41.1068 95.8184 41.1292 95.849C41.1515 95.8797 41.1627 95.9158 41.1627 95.9604V96.5004C41.1627 96.5366 41.1487 96.57 41.1236 96.5978C41.0985 96.6256 41.0594 96.6396 41.0092 96.6396H38.8268V97.5693H40.5096C40.5515 97.5665 40.5822 97.5748 40.6073 97.5943C40.6324 97.6166 40.6436 97.6528 40.6436 97.7029V98.2568C40.6436 98.293 40.6324 98.3264 40.6129 98.3542C40.5933 98.3821 40.5599 98.396 40.5152 98.396H38.8268V99.5094H41.0901C41.1487 99.5094 41.185 99.5205 41.2045 99.5456C41.224 99.5706 41.2324 99.6068 41.2324 99.6597V100.216C41.2324 100.303 41.1878 100.344 41.0985 100.344H38.0594C38.0231 100.344 37.9896 100.333 37.9645 100.314C37.9366 100.294 37.9255 100.261 37.9255 100.216V95.9465L37.9227 95.952Z" fill="#bbbbbb"/>
<path d="M46.7747 95.952C46.7747 95.8546 46.8194 95.8045 46.9087 95.8045H48.7589C48.9682 95.8045 49.1663 95.8435 49.3477 95.9214C49.5291 95.9994 49.6854 96.1079 49.8194 96.2415C49.9533 96.3751 50.0566 96.5338 50.1319 96.7147C50.2073 96.8957 50.2463 97.0877 50.2463 97.2909C50.2463 97.4301 50.2296 97.5637 50.1933 97.689C50.157 97.8142 50.1068 97.9339 50.0426 98.0425C49.9784 98.151 49.9003 98.2512 49.8082 98.3403C49.7161 98.4294 49.6156 98.5073 49.504 98.5713L50.2854 100.208C50.2854 100.208 50.2854 100.216 50.2882 100.222C50.2882 100.228 50.291 100.23 50.291 100.236C50.291 100.272 50.2798 100.3 50.2631 100.319C50.2435 100.339 50.2073 100.347 50.157 100.347H49.4231C49.3673 100.347 49.3282 100.317 49.3059 100.253L48.6249 98.7578H47.6789V100.219C47.6789 100.305 47.6342 100.347 47.5449 100.347H46.9087C46.8724 100.347 46.8389 100.336 46.8138 100.317C46.7887 100.297 46.7747 100.264 46.7747 100.219V95.9492V95.952ZM49.3728 97.2881C49.3728 97.2102 49.3589 97.1322 49.3254 97.0571C49.2947 96.9819 49.2501 96.9124 49.1942 96.8511C49.1384 96.7899 49.0714 96.7398 48.9905 96.7008C48.9096 96.6618 48.8231 96.6423 48.7282 96.6423H47.6789V97.9339H48.7505C48.8482 97.9339 48.9375 97.9172 49.0156 97.881C49.0938 97.8476 49.158 97.8003 49.211 97.7391C49.264 97.6778 49.3031 97.611 49.331 97.5331C49.3589 97.4551 49.3728 97.3744 49.3728 97.2881Z" fill="#bbbbbb"/>
<path d="M55.8082 95.9381C55.8082 95.9019 55.8193 95.8685 55.8417 95.8435C55.864 95.8184 55.8975 95.8045 55.9421 95.8045H56.6621C56.6928 95.8045 56.7263 95.8129 56.7626 95.8296C56.7989 95.8463 56.824 95.8685 56.8407 95.8991L58.8584 98.7384V95.8991C58.8723 95.863 58.8919 95.8379 58.9198 95.824C58.9477 95.8101 58.97 95.8045 58.9923 95.8045H59.6119C59.6426 95.8045 59.6761 95.8156 59.7095 95.8407C59.743 95.8657 59.7626 95.8991 59.7626 95.9381V100.216C59.7626 100.305 59.7123 100.35 59.6119 100.35H58.9588C58.9365 100.35 58.9142 100.339 58.8947 100.322C58.8751 100.303 58.8528 100.278 58.8277 100.25L56.6928 97.1879V100.216C56.6984 100.305 56.6537 100.35 56.5589 100.35H55.9393C55.85 100.35 55.8054 100.305 55.8054 100.216V95.9381H55.8082Z" fill="#bbbbbb"/>
<path d="M72.4072 95.9381C72.4072 95.9019 72.4183 95.8685 72.4434 95.8435C72.4658 95.8184 72.4992 95.8045 72.5439 95.8045H73.1662C73.1802 95.8045 73.1969 95.8073 73.2137 95.8129C73.2304 95.8184 73.2471 95.8268 73.2611 95.8407C73.2751 95.8518 73.289 95.8685 73.2974 95.8824C73.3085 95.8991 73.3141 95.9158 73.3141 95.9381V97.7558L75.036 95.8964C75.0779 95.8323 75.1225 95.8017 75.1699 95.8017H76.049C76.1048 95.8017 76.1327 95.8129 76.1327 95.8379C76.1327 95.8546 76.1216 95.8769 76.0965 95.9019L74.4751 97.7836L76.3671 100.225C76.3978 100.267 76.4146 100.294 76.4146 100.314C76.4146 100.336 76.3923 100.347 76.3504 100.347H75.4183C75.3681 100.347 75.3234 100.317 75.2843 100.253L73.8416 98.4183L73.3197 98.9583V100.214C73.3197 100.303 73.2695 100.347 73.1718 100.347H72.5495C72.4602 100.347 72.4155 100.303 72.4155 100.214V95.9353L72.4072 95.9381Z" fill="#bbbbbb"/>
<path d="M81.8257 95.9381C81.8257 95.9019 81.8369 95.8685 81.8592 95.8435C81.8815 95.8184 81.915 95.8045 81.9597 95.8045H82.5792C82.6099 95.8045 82.6434 95.8156 82.6769 95.8407C82.7104 95.8657 82.7299 95.8991 82.7299 95.9381V100.216C82.7299 100.305 82.6797 100.35 82.5792 100.35H81.9597C81.8704 100.35 81.8257 100.305 81.8257 100.216V95.9381Z" fill="#bbbbbb"/>
<path d="M88.2666 95.9381C88.2666 95.9019 88.2806 95.8685 88.3141 95.8435C88.3448 95.8184 88.381 95.8045 88.4201 95.8045H91.554C91.5903 95.8045 91.6238 95.8156 91.6573 95.8379C91.688 95.8602 91.7075 95.8936 91.7103 95.9381V96.4781C91.7103 96.5227 91.6964 96.5616 91.6712 96.5922C91.6433 96.6229 91.6043 96.6396 91.554 96.6396H90.4406V100.194C90.4406 100.211 90.4378 100.228 90.4294 100.244C90.421 100.261 90.4099 100.278 90.3987 100.294C90.3875 100.311 90.3708 100.325 90.354 100.333C90.3373 100.344 90.3178 100.347 90.301 100.347H89.6871C89.6731 100.347 89.6564 100.342 89.6396 100.333C89.6229 100.325 89.6061 100.311 89.5894 100.297C89.5754 100.283 89.5615 100.267 89.5503 100.247C89.5392 100.228 89.5364 100.208 89.5364 100.191V96.6368H88.4229C88.381 96.6368 88.3475 96.6229 88.3168 96.595C88.2862 96.5672 88.2694 96.5254 88.2694 96.4753V95.9353L88.2666 95.9381Z" fill="#bbbbbb"/>
<path d="M100.292 96.1357C100.325 96.1552 100.353 96.1831 100.367 96.2165C100.384 96.2499 100.381 96.2888 100.359 96.3334L100.06 96.84C100.029 96.8817 99.9987 96.904 99.968 96.9096C99.9373 96.9151 99.901 96.9068 99.8563 96.879C99.7308 96.7871 99.5912 96.7147 99.4433 96.6646C99.2954 96.6145 99.1391 96.5867 98.9717 96.5867C98.7624 96.5867 98.5726 96.6256 98.3968 96.7036C98.221 96.7815 98.0731 96.8901 97.9447 97.0237C97.8191 97.1573 97.7187 97.316 97.6489 97.4997C97.5791 97.6834 97.5429 97.8755 97.5429 98.0842C97.5429 98.293 97.5791 98.4851 97.6489 98.6632C97.7187 98.8441 97.8191 99.0028 97.9447 99.1364C98.0731 99.27 98.221 99.3786 98.3968 99.4537C98.5698 99.5317 98.7624 99.5706 98.9717 99.5706C99.1363 99.5706 99.2954 99.5456 99.4489 99.4927C99.5996 99.4426 99.7391 99.3702 99.8647 99.2784C99.9094 99.2505 99.9456 99.2394 99.9763 99.245C100.007 99.2505 100.035 99.27 100.066 99.3118L100.37 99.8239C100.392 99.8685 100.395 99.9074 100.378 99.9381C100.361 99.9687 100.336 99.9937 100.303 100.016C100.113 100.144 99.9066 100.244 99.6805 100.314C99.4573 100.383 99.2228 100.42 98.9801 100.42C98.7624 100.42 98.5559 100.392 98.3549 100.336C98.1568 100.28 97.9698 100.202 97.794 100.1C97.621 99.9965 97.4619 99.8768 97.3196 99.7349C97.1773 99.5929 97.0545 99.437 96.954 99.2644C96.8508 99.0919 96.7726 98.9054 96.7168 98.7077C96.661 98.5073 96.6331 98.3013 96.6331 98.0842C96.6331 97.8671 96.661 97.6611 96.7168 97.4607C96.7726 97.2631 96.8508 97.0738 96.954 96.9012C97.0573 96.7259 97.1773 96.5672 97.3196 96.4252C97.4619 96.2833 97.621 96.1608 97.794 96.0606C97.967 95.9604 98.154 95.8824 98.3549 95.824C98.5559 95.7655 98.7624 95.7405 98.9801 95.7405C99.2228 95.7405 99.4545 95.7739 99.6749 95.8435C99.8926 95.9131 100.099 96.0105 100.292 96.1385V96.1357Z" fill="#bbbbbb"/>
<path d="M106.102 95.9381C106.102 95.9075 106.113 95.8769 106.138 95.8463C106.163 95.8156 106.194 95.8017 106.23 95.8017H106.867C106.897 95.8017 106.928 95.8156 106.959 95.8407C106.989 95.8685 107.006 95.8991 107.006 95.9353V97.5192H109.038V95.9353C109.038 95.8991 109.052 95.8657 109.077 95.8407C109.102 95.8156 109.138 95.8017 109.177 95.8017H109.786C109.822 95.8017 109.858 95.8129 109.892 95.8379C109.925 95.863 109.942 95.8964 109.942 95.9353V100.214C109.942 100.303 109.889 100.347 109.786 100.347H109.177C109.141 100.347 109.107 100.336 109.08 100.314C109.052 100.292 109.038 100.258 109.038 100.214V98.3542H107.006V100.214C107.006 100.255 106.992 100.286 106.961 100.311C106.931 100.336 106.894 100.347 106.85 100.347H106.23C106.144 100.347 106.102 100.303 106.102 100.214V95.9353V95.9381Z" fill="#bbbbbb"/>
<path d="M115.76 95.952C115.76 95.8546 115.805 95.8045 115.894 95.8045H118.853C118.906 95.8045 118.945 95.8184 118.967 95.849C118.989 95.8797 119 95.9158 119 95.9604V96.5004C119 96.5366 118.986 96.57 118.961 96.5978C118.936 96.6256 118.897 96.6396 118.847 96.6396H116.665V97.5693H118.347C118.389 97.5665 118.42 97.5748 118.445 97.5943C118.47 97.6138 118.481 97.6528 118.481 97.7029V98.2568C118.481 98.293 118.47 98.3264 118.451 98.3542C118.431 98.3821 118.398 98.396 118.353 98.396H116.665V99.5094H118.928C118.986 99.5094 119.023 99.5205 119.042 99.5456C119.062 99.5706 119.07 99.6068 119.07 99.6597V100.216C119.07 100.303 119.026 100.344 118.936 100.344H115.897C115.861 100.344 115.827 100.333 115.802 100.314C115.777 100.294 115.763 100.261 115.763 100.216V95.9465L115.76 95.952Z" fill="#bbbbbb"/>
<path d="M124.613 95.9381C124.613 95.9019 124.624 95.8685 124.646 95.8435C124.668 95.8184 124.702 95.8045 124.746 95.8045H125.466C125.497 95.8045 125.531 95.8129 125.567 95.8296C125.603 95.8463 125.628 95.8685 125.645 95.8991L127.663 98.7384V95.8991C127.677 95.863 127.696 95.8379 127.724 95.824C127.752 95.8101 127.774 95.8045 127.797 95.8045H128.416C128.447 95.8045 128.48 95.8156 128.514 95.8407C128.547 95.8657 128.567 95.8991 128.567 95.9381V100.216C128.567 100.305 128.517 100.35 128.416 100.35H127.763C127.741 100.35 127.719 100.339 127.699 100.322C127.679 100.305 127.657 100.278 127.632 100.25L125.497 97.1879V100.216C125.503 100.305 125.458 100.35 125.363 100.35H124.744C124.654 100.35 124.61 100.305 124.61 100.216V95.9381H124.613Z" fill="#bbbbbb"/>
<path d="M143.807 97.0181C143.779 97.0181 143.757 97.0126 143.734 96.9986C143.712 96.9847 143.687 96.968 143.656 96.9458H143.651C143.611 96.904 143.561 96.8623 143.5 96.8149C143.438 96.7676 143.369 96.7231 143.293 96.6841C143.218 96.6423 143.137 96.6089 143.048 96.5811C142.961 96.5533 142.872 96.5394 142.783 96.5394C142.668 96.5394 142.568 96.5533 142.478 96.5783C142.389 96.6034 142.317 96.6396 142.258 96.6813C142.199 96.7259 142.155 96.776 142.124 96.8344C142.093 96.8929 142.077 96.9569 142.077 97.0237C142.077 97.0961 142.099 97.1629 142.146 97.2158C142.194 97.2714 142.255 97.3215 142.333 97.3633C142.411 97.4078 142.504 97.4468 142.604 97.483C142.707 97.5192 142.813 97.5526 142.925 97.586C143.118 97.6444 143.307 97.7112 143.494 97.7836C143.681 97.856 143.849 97.945 143.997 98.048C144.145 98.151 144.265 98.2763 144.354 98.4238C144.443 98.5713 144.491 98.7467 144.491 98.9527C144.491 99.1754 144.446 99.3758 144.357 99.5567C144.267 99.7376 144.142 99.8907 143.983 100.019C143.824 100.147 143.637 100.244 143.425 100.314C143.21 100.383 142.981 100.417 142.735 100.417C142.579 100.417 142.42 100.397 142.266 100.361C142.11 100.325 141.962 100.272 141.817 100.205C141.672 100.138 141.538 100.058 141.41 99.9603C141.281 99.8657 141.167 99.7599 141.066 99.6402L141.061 99.6319C141.016 99.5818 140.994 99.5345 140.994 99.4899C140.994 99.4454 141.019 99.4064 141.066 99.3591L141.108 99.3118L141.167 99.2561C141.198 99.231 141.231 99.2004 141.265 99.167C141.298 99.1336 141.334 99.1058 141.368 99.0779C141.401 99.0501 141.435 99.0278 141.465 99.0111C141.496 98.9917 141.518 98.9833 141.538 98.9833C141.566 98.9833 141.594 98.9917 141.619 99.0111C141.644 99.0306 141.664 99.0473 141.68 99.064L141.691 99.0752H141.689C141.761 99.142 141.839 99.206 141.929 99.2672C142.018 99.3285 142.11 99.3841 142.205 99.4315C142.3 99.4788 142.392 99.5177 142.487 99.5456C142.579 99.5734 142.668 99.5873 142.749 99.5873C142.861 99.5873 142.967 99.5734 143.065 99.5456C143.162 99.5177 143.249 99.476 143.318 99.4259C143.391 99.373 143.447 99.3118 143.489 99.2366C143.531 99.1642 143.55 99.0807 143.55 98.9917C143.55 98.9026 143.525 98.8246 143.469 98.7606C143.416 98.6966 143.346 98.6409 143.26 98.5908C143.173 98.5435 143.078 98.5018 142.97 98.4656C142.864 98.4322 142.755 98.3988 142.646 98.3681C142.395 98.293 142.177 98.2123 141.99 98.1232C141.803 98.0341 141.647 97.9367 141.521 97.8281C141.396 97.7196 141.304 97.5971 141.239 97.4607C141.175 97.3243 141.147 97.1712 141.147 97.0042C141.147 96.8149 141.186 96.6423 141.262 96.4865C141.34 96.3306 141.449 96.197 141.588 96.0856C141.728 95.9743 141.898 95.888 142.099 95.8268C142.297 95.7655 142.52 95.7321 142.766 95.7321C142.953 95.7321 143.143 95.76 143.335 95.8184C143.528 95.8769 143.706 95.9576 143.868 96.0578C143.918 96.0884 143.969 96.1246 144.019 96.1608C144.069 96.1998 144.117 96.2387 144.161 96.2777C144.203 96.3167 144.239 96.3556 144.267 96.3946C144.295 96.4336 144.309 96.4642 144.309 96.492C144.309 96.5199 144.304 96.5449 144.29 96.5672C144.276 96.5895 144.262 96.6145 144.242 96.6368L144.15 96.7342C144.119 96.7648 144.089 96.7982 144.055 96.8316C144.022 96.865 143.988 96.8984 143.958 96.9263C143.924 96.9541 143.896 96.9764 143.868 96.9959C143.84 97.0153 143.818 97.0237 143.801 97.0237L143.807 97.0181Z" fill="#bbbbbb"/>
<path d="M150.061 95.952C150.061 95.8546 150.105 95.8045 150.195 95.8045H153.153C153.206 95.8045 153.245 95.8184 153.267 95.849C153.29 95.8797 153.301 95.9158 153.301 95.9604V96.5004C153.301 96.5366 153.287 96.57 153.262 96.5978C153.237 96.6256 153.197 96.6396 153.147 96.6396H150.965V97.5693H152.648C152.69 97.5665 152.72 97.5748 152.745 97.5943C152.771 97.6138 152.782 97.6528 152.782 97.7029V98.2568C152.782 98.293 152.771 98.3264 152.751 98.3542C152.731 98.3821 152.698 98.396 152.653 98.396H150.965V99.5094H153.228C153.287 99.5094 153.323 99.5205 153.343 99.5456C153.362 99.5706 153.371 99.6068 153.371 99.6597V100.216C153.371 100.303 153.326 100.344 153.237 100.344H150.198C150.161 100.344 150.128 100.333 150.103 100.314C150.078 100.294 150.064 100.261 150.064 100.216V95.9465L150.061 95.952Z" fill="#bbbbbb"/>
<path d="M158.913 95.952C158.913 95.8546 158.957 95.8045 159.047 95.8045H160.897C161.106 95.8045 161.304 95.8435 161.486 95.9214C161.667 95.9994 161.824 96.1079 161.957 96.2415C162.091 96.3751 162.195 96.5338 162.27 96.7147C162.345 96.8957 162.384 97.0877 162.384 97.2909C162.384 97.4301 162.368 97.5637 162.331 97.689C162.295 97.8142 162.245 97.9339 162.181 98.0425C162.117 98.151 162.038 98.2512 161.946 98.3403C161.854 98.4294 161.754 98.5073 161.642 98.5713L162.426 100.208C162.426 100.208 162.426 100.216 162.429 100.222C162.429 100.228 162.432 100.23 162.432 100.236C162.432 100.272 162.424 100.3 162.404 100.319C162.384 100.339 162.348 100.347 162.298 100.347H161.564C161.508 100.347 161.469 100.317 161.447 100.253L160.766 98.7578H159.82V100.219C159.82 100.305 159.775 100.347 159.686 100.347H159.05C159.013 100.347 158.98 100.336 158.955 100.317C158.93 100.297 158.916 100.264 158.916 100.219V95.9492L158.913 95.952ZM161.511 97.2881C161.511 97.2102 161.497 97.1322 161.464 97.0571C161.433 96.9819 161.388 96.9124 161.332 96.8511C161.277 96.7899 161.21 96.7398 161.129 96.7008C161.048 96.6618 160.961 96.6423 160.866 96.6423H159.817V97.9339H160.889C160.986 97.9339 161.076 97.9172 161.154 97.881C161.232 97.8476 161.296 97.8003 161.349 97.7391C161.402 97.6778 161.441 97.611 161.469 97.5331C161.497 97.4551 161.511 97.3744 161.511 97.2881Z" fill="#bbbbbb"/>
<path d="M169.702 99.0028C169.785 98.7773 169.875 98.5379 169.97 98.2846C170.064 98.0286 170.162 97.7697 170.257 97.508C170.355 97.2436 170.452 96.9819 170.55 96.7203C170.648 96.4586 170.743 96.2053 170.832 95.9632C170.851 95.9242 170.882 95.888 170.918 95.8574C170.955 95.824 170.994 95.8073 171.038 95.8073H171.644C171.697 95.8073 171.736 95.8184 171.764 95.8435C171.792 95.8657 171.806 95.8991 171.806 95.9409C171.806 95.9492 171.806 95.9604 171.8 95.9771C171.795 95.9938 171.795 96.0021 171.795 96.0049L170.115 100.144C170.106 100.164 170.098 100.186 170.087 100.211C170.076 100.236 170.062 100.258 170.045 100.28C170.028 100.303 170.006 100.319 169.981 100.333C169.956 100.347 169.928 100.356 169.894 100.356H169.492C169.456 100.356 169.425 100.347 169.4 100.331C169.375 100.314 169.353 100.292 169.333 100.264C169.314 100.236 169.297 100.205 169.28 100.166C169.266 100.13 169.25 100.091 169.236 100.052C169.035 99.5484 168.859 99.103 168.703 98.7189C168.546 98.3347 168.412 98.0007 168.298 97.714C168.183 97.4273 168.086 97.1879 168.008 96.9903C167.93 96.7927 167.863 96.6312 167.812 96.5004C167.759 96.3696 167.72 96.2694 167.692 96.197C167.664 96.1246 167.642 96.0689 167.628 96.0328C167.614 95.9966 167.606 95.9715 167.603 95.9604C167.6 95.9492 167.597 95.9381 167.597 95.9325C167.597 95.8518 167.648 95.8101 167.751 95.8101H168.373C168.468 95.8101 168.532 95.8574 168.56 95.952L169.696 99.0111L169.702 99.0028Z" fill="#bbbbbb"/>
<path d="M177.264 95.9381C177.264 95.9019 177.276 95.8685 177.298 95.8435C177.32 95.8184 177.354 95.8045 177.398 95.8045H178.018C178.049 95.8045 178.082 95.8156 178.116 95.8407C178.149 95.8657 178.169 95.8991 178.169 95.9381V100.216C178.169 100.305 178.118 100.35 178.018 100.35H177.398C177.309 100.35 177.264 100.305 177.264 100.216V95.9381Z" fill="#bbbbbb"/>
<path d="M187.503 96.1357C187.537 96.1552 187.565 96.1831 187.579 96.2165C187.595 96.2499 187.593 96.2888 187.57 96.3334L187.272 96.84C187.241 96.8817 187.21 96.904 187.18 96.9096C187.149 96.9151 187.113 96.9068 187.068 96.879C186.942 96.7871 186.803 96.7147 186.655 96.6646C186.507 96.6145 186.351 96.5867 186.183 96.5867C185.974 96.5867 185.784 96.6256 185.609 96.7036C185.433 96.7815 185.285 96.8901 185.156 97.0237C185.031 97.1573 184.93 97.316 184.861 97.4997C184.791 97.6834 184.755 97.8755 184.755 98.0842C184.755 98.293 184.791 98.4851 184.861 98.6632C184.93 98.8441 185.031 99.0028 185.156 99.1364C185.285 99.27 185.433 99.3786 185.609 99.4537C185.782 99.5317 185.974 99.5706 186.183 99.5706C186.348 99.5706 186.507 99.5456 186.661 99.4927C186.811 99.4426 186.951 99.3702 187.076 99.2784C187.121 99.2505 187.157 99.2394 187.188 99.245C187.219 99.2505 187.247 99.27 187.277 99.3118L187.582 99.8239C187.604 99.8685 187.607 99.9074 187.59 99.9381C187.573 99.9687 187.548 99.9937 187.515 100.016C187.325 100.144 187.118 100.244 186.892 100.314C186.669 100.383 186.435 100.42 186.192 100.42C185.974 100.42 185.768 100.392 185.567 100.336C185.369 100.28 185.182 100.202 185.006 100.1C184.833 99.9965 184.674 99.8768 184.531 99.7349C184.389 99.5929 184.266 99.437 184.166 99.2644C184.062 99.0919 183.984 98.9054 183.929 98.7077C183.873 98.5073 183.845 98.3013 183.845 98.0842C183.845 97.8671 183.873 97.6611 183.929 97.4607C183.984 97.2631 184.062 97.0738 184.166 96.9012C184.269 96.7259 184.389 96.5672 184.531 96.4252C184.674 96.2833 184.833 96.1608 185.006 96.0606C185.179 95.9604 185.366 95.8824 185.567 95.824C185.768 95.7655 185.974 95.7405 186.192 95.7405C186.435 95.7405 186.666 95.7739 186.887 95.8435C187.104 95.9131 187.311 96.0105 187.503 96.1385V96.1357Z" fill="#bbbbbb"/>
<path d="M193.314 95.952C193.314 95.8546 193.358 95.8045 193.448 95.8045H196.406C196.459 95.8045 196.498 95.8184 196.52 95.849C196.542 95.8797 196.554 95.9158 196.554 95.9604V96.5004C196.554 96.5366 196.54 96.57 196.515 96.5978C196.489 96.6256 196.45 96.6396 196.4 96.6396H194.218V97.5693H195.901C195.942 97.5665 195.973 97.5748 195.998 97.5943C196.023 97.6138 196.035 97.6528 196.035 97.7029V98.2568C196.035 98.293 196.023 98.3264 196.004 98.3542C195.984 98.3821 195.951 98.396 195.906 98.396H194.218V99.5094H196.481C196.54 99.5094 196.576 99.5205 196.595 99.5456C196.615 99.5706 196.623 99.6068 196.623 99.6597V100.216C196.623 100.303 196.579 100.344 196.489 100.344H193.45C193.414 100.344 193.381 100.333 193.355 100.314C193.33 100.294 193.316 100.261 193.316 100.216V95.9465L193.314 95.952Z" fill="#bbbbbb"/>
</svg>
