<svg width="300" height="55" viewBox="0 0 300 55" fill="none" xmlns="http://www.w3.org/2000/svg">
<g clip-path="url(#clip0_4013_2773)">
<path d="M1.38482 54.3404C1.01012 54.3404 0.685944 54.2053 0.412287 53.9309C0.13863 53.6565 0.00390625 53.3314 0.00390625 52.9557V19.7518C0.00390625 19.3761 0.13863 19.051 0.412287 18.7766C0.685944 18.5022 1.01012 18.3671 1.38482 18.3671H18.4021C21.6818 18.3671 24.3636 18.7724 26.4476 19.5745C28.5316 20.3809 30.0767 21.5799 31.0872 23.1714C32.0934 24.763 32.5986 26.7599 32.5986 29.1578C32.5986 30.2555 32.367 31.2391 31.9081 32.113C31.4492 32.9869 30.8977 33.7131 30.2662 34.2957C29.6347 34.8783 29.0453 35.3089 28.4979 35.5791C29.7947 36.1279 30.9314 37.0778 31.9081 38.433C32.8807 39.7881 33.369 41.3206 33.369 43.0346C33.369 45.6057 32.8049 47.7207 31.6766 49.3841C30.5483 51.0474 28.9148 52.2886 26.7802 53.1119C24.6457 53.9351 22.0228 54.3446 18.9115 54.3446H1.38482V54.3404ZM12.8153 31.8808H17.1222C17.8716 31.8808 18.4105 31.6318 18.7347 31.1336C19.0589 30.6354 19.2231 30.1162 19.2231 29.5673C19.2231 29.0185 19.0589 28.4866 18.7347 27.9758C18.4105 27.4607 17.8716 27.2032 17.1222 27.2032H12.8153V31.8808ZM12.8153 45.5001H17.5811C18.4358 45.5001 19.042 45.2173 19.3999 44.6515C19.7578 44.0858 19.9388 43.5286 19.9388 42.9797C19.9388 42.3634 19.7409 41.7892 19.3494 41.2573C18.9578 40.7253 18.3684 40.4594 17.5811 40.4594H12.8153V45.4959V45.5001Z" fill="#FF7841"/>
<path d="M35.9291 54.3406C35.6218 54.3406 35.3565 54.2309 35.1334 54.0071C34.9102 53.7834 34.8008 53.5174 34.8008 53.2092C34.8008 53.0741 34.8176 52.9517 34.8513 52.8504L46.2818 20.0603C46.3828 19.6846 46.6228 19.3088 46.9975 18.9289C47.3722 18.5531 47.9027 18.3632 48.5847 18.3632H59.7078C60.3898 18.3632 60.9203 18.5531 61.295 18.9289C61.6697 19.3046 61.9097 19.6846 62.0107 20.0603L73.4412 52.8504C73.4749 52.9517 73.4917 53.0741 73.4917 53.2092C73.4917 53.5174 73.3823 53.7834 73.1591 54.0071C72.936 54.2309 72.6707 54.3406 72.3634 54.3406H62.8822C62.2339 54.3406 61.7623 54.1971 61.4718 53.9016C61.1813 53.6103 60.9835 53.3274 60.8824 53.053L59.6531 49.6588H48.631L47.4016 53.053C47.3006 53.3274 47.1111 53.6103 46.8375 53.9016C46.5638 54.1929 46.0839 54.3406 45.4018 54.3406H35.9207H35.9291ZM51.2539 39.6406H57.047L54.1252 30.0826L51.2539 39.6406Z" fill="#FF7841"/>
<path d="M77.7012 54.3403C77.3265 54.3403 77.0024 54.2052 76.7287 53.9308C76.455 53.6564 76.3203 53.3313 76.3203 52.9556V19.7518C76.3203 19.3761 76.455 19.051 76.7287 18.7766C77.0024 18.5022 77.3265 18.3671 77.7012 18.3671H94.7185C97.9982 18.3671 100.68 18.7724 102.764 19.5745C104.848 20.3808 106.393 21.5798 107.404 23.1714C108.41 24.763 108.915 26.7598 108.915 29.1578C108.915 30.2554 108.683 31.2391 108.225 32.113C107.766 32.9869 107.214 33.713 106.583 34.2956C105.951 34.8782 105.362 35.3088 104.814 35.579C106.111 36.1278 107.248 37.0777 108.225 38.4329C109.197 39.7881 109.685 41.3205 109.685 43.0346C109.685 45.6056 109.121 47.7207 107.993 49.384C106.865 51.0474 105.231 52.2886 103.097 53.1118C100.962 53.935 98.3392 54.3445 95.2279 54.3445H77.697L77.7012 54.3403ZM89.1317 31.8808H93.4386C94.188 31.8808 94.7269 31.6317 95.0511 31.1335C95.3753 30.6354 95.5395 30.1161 95.5395 29.5673C95.5395 29.0185 95.3753 28.4865 95.0511 27.9757C94.7269 27.4606 94.188 27.2031 93.4386 27.2031H89.1317V31.8808ZM89.1317 45.5H93.8975C94.7522 45.5 95.3584 45.2172 95.7163 44.6515C96.0742 44.0858 96.2552 43.5285 96.2552 42.9797C96.2552 42.3633 96.0573 41.7892 95.6658 41.2572C95.2742 40.7253 94.6848 40.4593 93.8975 40.4593H89.1317V45.4958V45.5Z" fill="#FF7841"/>
<path d="M130.29 54.8554C127.011 54.8554 124.114 54.3572 121.601 53.3651C119.087 52.373 117.134 50.8279 115.732 48.7381C114.33 46.6484 113.631 43.9929 113.631 40.7717V19.7518C113.631 19.3761 113.766 19.051 114.039 18.7766C114.313 18.5022 114.637 18.3671 115.012 18.3671H125.057C125.432 18.3671 125.756 18.5064 126.03 18.7766C126.303 19.051 126.438 19.3761 126.438 19.7518V40.5691C126.438 41.8356 126.754 42.815 127.385 43.499C128.017 44.1829 128.964 44.5291 130.231 44.5291C131.499 44.5291 132.442 44.1871 133.077 43.499C133.709 42.815 134.025 41.8356 134.025 40.5691V19.7518C134.025 19.3761 134.159 19.051 134.433 18.7766C134.707 18.5022 135.031 18.3671 135.406 18.3671H145.451C145.826 18.3671 146.15 18.5064 146.423 18.7766C146.697 19.051 146.832 19.3761 146.832 19.7518V40.7717C146.832 43.9929 146.133 46.6484 144.731 48.7381C143.329 50.8279 141.38 52.3688 138.887 53.3651C136.391 54.3572 133.524 54.8554 130.278 54.8554H130.29Z" fill="#FF7841"/>
<path d="M167.145 54.8554C163.352 54.8554 160.224 54.3404 157.765 53.3145C155.306 52.2886 153.458 50.9335 152.229 49.2532C150.999 47.573 150.351 45.7914 150.279 43.9085C150.279 43.6003 150.389 43.3344 150.612 43.1106C150.835 42.8869 151.1 42.7771 151.408 42.7771H161.146C161.693 42.7771 162.11 42.8531 162.4 43.0093C162.691 43.1655 163.006 43.3766 163.347 43.651C163.688 43.8916 164.038 44.1069 164.4 44.2927C164.758 44.4827 165.17 44.6178 165.629 44.7022C166.092 44.7866 166.593 44.8289 167.141 44.8289C168.303 44.8289 169.233 44.7022 169.936 44.4447C170.635 44.1871 170.989 43.8367 170.989 43.3892C170.989 42.9797 170.791 42.6378 170.399 42.3591C170.008 42.0847 169.33 41.8357 168.374 41.6119C167.419 41.3882 166.084 41.1728 164.375 40.9702C161.676 40.5945 159.335 39.9612 157.352 39.0704C155.369 38.1796 153.841 36.9553 152.763 35.3933C151.685 33.8355 151.151 31.9231 151.151 29.6644C151.151 27.4058 151.808 25.2781 153.125 23.4965C154.439 21.7149 156.27 20.326 158.611 19.3339C160.952 18.3418 163.676 17.8436 166.787 17.8436C169.351 17.8436 171.62 18.1771 173.603 18.8442C175.586 19.5112 177.258 20.3851 178.626 21.4659C179.994 22.5466 181.034 23.7034 181.754 24.9361C182.474 26.1689 182.849 27.3509 182.882 28.4824C182.882 28.7905 182.773 29.0565 182.55 29.2803C182.327 29.504 182.078 29.6138 181.805 29.6138H171.553C171.073 29.6138 170.69 29.5462 170.399 29.4069C170.109 29.2718 169.81 29.065 169.503 28.7905C169.33 28.6175 169.014 28.4233 168.555 28.1995C168.092 27.9757 167.503 27.866 166.787 27.866C165.932 27.866 165.309 27.9926 164.918 28.2502C164.526 28.5077 164.328 28.8581 164.328 29.3056C164.328 29.6138 164.484 29.9051 164.792 30.1795C165.099 30.4539 165.663 30.6945 166.484 30.8972C167.305 31.104 168.484 31.3067 170.021 31.5136C173.435 31.9231 176.18 32.5859 178.247 33.4935C180.314 34.4012 181.817 35.6086 182.756 37.1158C183.695 38.6229 184.166 40.4931 184.166 42.718C184.166 45.2215 183.421 47.3788 181.935 49.1941C180.449 51.0094 178.424 52.4068 175.86 53.382C173.296 54.3573 170.391 54.847 167.145 54.847V54.8554Z" fill="#FF7841"/>
<path d="M189.287 54.3403C188.912 54.3403 188.588 54.2137 188.315 53.9562C188.041 53.6986 187.906 53.3651 187.906 52.9556V19.7518C187.906 19.3761 188.041 19.051 188.315 18.7766C188.588 18.5022 188.912 18.3671 189.287 18.3671H199.332C199.707 18.3671 200.031 18.5064 200.305 18.7766C200.579 19.051 200.713 19.3761 200.713 19.7518V30.5467H209.016V19.7518C209.016 19.3761 209.15 19.051 209.424 18.7766C209.698 18.5022 210.022 18.3671 210.397 18.3671H220.442C220.817 18.3671 221.141 18.5064 221.415 18.7766C221.688 19.051 221.823 19.3761 221.823 19.7518V52.9556C221.823 53.3313 221.684 53.6564 221.415 53.9308C221.141 54.2052 220.817 54.3403 220.442 54.3403H210.397C210.022 54.3403 209.698 54.2052 209.424 53.9308C209.15 53.6564 209.016 53.3313 209.016 52.9556V41.8525H200.713V52.9556C200.713 53.3313 200.574 53.6564 200.305 53.9308C200.031 54.2052 199.707 54.3403 199.332 54.3403H189.287Z" fill="#FF7841"/>
<path d="M228.857 54.3403C228.483 54.3403 228.159 54.2052 227.885 53.9308C227.611 53.6564 227.477 53.3313 227.477 52.9556V19.7518C227.477 19.3761 227.611 19.051 227.885 18.7766C228.159 18.5022 228.483 18.3671 228.857 18.3671H238.646C239.021 18.3671 239.345 18.5064 239.619 18.7766C239.892 19.051 240.027 19.3761 240.027 19.7518V29.9304L245.82 19.4985C245.993 19.2241 246.237 18.9666 246.561 18.7259C246.885 18.4853 247.323 18.3671 247.866 18.3671H259.196C259.503 18.3671 259.768 18.4768 259.991 18.7006C260.214 18.9243 260.324 19.1903 260.324 19.4985C260.324 19.7054 260.273 19.8911 260.168 20.0642L250.94 35.5875L261.035 52.6516C261.136 52.791 261.191 52.9767 261.191 53.2174C261.191 53.5255 261.082 53.7915 260.859 54.0153C260.635 54.239 260.37 54.3488 260.063 54.3488H248.376C247.694 54.3488 247.188 54.1884 246.864 53.8591C246.54 53.534 246.342 53.3018 246.275 53.1667L240.023 41.9623V52.9598C240.023 53.3356 239.884 53.6606 239.614 53.935C239.341 54.2095 239.016 54.3446 238.642 54.3446H228.853L228.857 54.3403Z" fill="#FF7841"/>
<path d="M262.429 54.3406C262.122 54.3406 261.857 54.2309 261.633 54.0071C261.41 53.7834 261.301 53.5174 261.301 53.2092C261.301 53.0741 261.318 52.9517 261.351 52.8504L272.782 20.0603C272.883 19.6846 273.123 19.3088 273.502 18.9289C273.876 18.5531 274.407 18.3632 275.089 18.3632H286.212C286.894 18.3632 287.425 18.5531 287.799 18.9289C288.174 19.3046 288.414 19.6846 288.515 20.0603L299.945 52.8504C299.979 52.9517 299.996 53.0741 299.996 53.2092C299.996 53.5174 299.886 53.7834 299.663 54.0071C299.44 54.2309 299.175 54.3406 298.868 54.3406H289.386C288.738 54.3406 288.267 54.1971 287.976 53.9016C287.686 53.6103 287.488 53.3274 287.387 53.053L286.157 49.6588H275.139L273.91 53.053C273.809 53.3274 273.62 53.6103 273.346 53.9016C273.072 54.1929 272.592 54.3406 271.91 54.3406H262.429ZM277.754 39.6406H283.547L280.625 30.0826L277.754 39.6406Z" fill="#FF7841"/>
<path d="M61.5257 13.3306H53.6949C53.2528 13.3306 53.0339 12.7987 53.3454 12.4863L64.7801 1.01589C64.8727 0.923016 64.999 0.872356 65.1295 0.872356L73.3435 0.855469C73.7855 0.855469 74.0045 1.38741 73.6929 1.69981L62.4982 12.9254C62.2414 13.1829 61.892 13.3264 61.5257 13.3264V13.3306Z" fill="#FF7841"/>
</g>
<defs>
<clipPath id="clip0_4013_2773">
<rect width="300" height="54" fill="white" transform="translate(0 0.855469)"/>
</clipPath>
</defs>
</svg>
