<svg width="1788" height="361" viewBox="0 0 1788 361" fill="none" xmlns="http://www.w3.org/2000/svg">
<path d="M345.475 81.84C354.166 87.8631 363.822 90.7026 374.34 89.8168C390.171 88.4818 402.268 80.8926 410.322 67.1417C414.535 59.9479 416.545 52.084 416.163 43.7528C415.434 27.871 408.376 15.4782 395.005 6.84407C387.347 1.89929 378.82 -0.424197 369.724 0.0636059C352.769 0.975028 339.963 8.8569 331.637 23.7092C327.285 31.4704 325.596 39.9069 326.405 48.7515C327.485 60.5512 332.446 70.4895 341.231 78.4844C341.434 78.6692 341.639 78.8541 341.845 79.0389C342.6 79.8862 345.475 81.8374 345.475 81.8374V81.84ZM344.322 76.8464C356.027 68.3869 365.121 57.8298 372.109 45.4344C379.105 33.0263 383.298 19.758 384.068 5.33188C385.331 5.82482 386.528 6.31005 387.737 6.75421C388.181 6.91596 388.304 7.13675 388.286 7.62199C388.076 13.3678 387.29 19.0314 386.032 24.6386C384.492 31.5012 382.261 38.1251 379.19 44.4511C373.783 55.6013 366.412 65.2752 357.041 73.3804C354.487 75.5909 351.675 77.5062 348.964 79.5344C348.777 79.6757 348.356 79.7501 348.191 79.6397C346.913 78.7617 345.67 77.8323 344.317 76.8464H344.322ZM375.172 3.45255C376.789 3.73497 378.402 4.04049 380.024 4.28439C380.556 4.36398 380.73 4.5668 380.679 5.09055C380.435 7.58348 380.297 10.0892 379.968 12.5693C379.293 17.6861 378.04 22.6771 376.412 27.5731C374.178 34.292 371.198 40.6617 367.501 46.7002C361.501 56.4947 354.076 65.0287 345.021 72.1173C343.986 72.9286 342.9 73.6731 341.778 74.4947C340.548 73.0878 339.378 71.7527 338.176 70.3792C338.828 69.9068 339.375 69.5191 339.912 69.1186C346.045 64.5153 351.329 59.057 355.991 52.9954C363.09 43.7682 368.741 33.7503 372.23 22.5898C373.542 18.3947 374.479 14.1149 374.856 9.73238C375.031 7.70414 375.064 5.66307 375.172 3.44999V3.45255ZM391.711 8.80555C391.786 8.83379 391.878 8.8492 391.952 8.89541C392.992 9.5501 394.019 10.2279 395.072 10.8595C395.565 11.1547 395.739 11.5193 395.747 12.0969C395.857 19.2779 394.766 26.2997 392.874 33.2009C390.512 41.8196 387.031 49.9659 382.245 57.5294C375.729 67.8297 367.485 76.4562 357.259 83.1493C356.52 83.6346 355.899 83.8528 355.051 83.3778C354.012 82.795 352.895 82.3509 351.86 81.8682C376.474 63.6372 389.501 39.2214 391.711 8.80555ZM344.189 12.957C344.279 13.0238 344.371 13.088 344.461 13.1547C344.538 13.2035 344.62 13.2471 344.695 13.3036C352.266 19.0006 358.448 25.9891 363.709 33.8247C363.814 33.9839 363.865 34.2894 363.786 34.4435C362.846 36.2483 361.876 38.0378 360.851 39.9454C355.47 30.9056 349.146 22.8979 340.361 17.1136C341.655 15.7093 342.921 14.3331 344.189 12.957ZM390.951 81.7219C390.951 81.3137 390.959 81.1134 390.951 80.9157C390.807 77.6243 390.769 74.3252 390.489 71.0467C390.053 65.9068 388.982 60.8696 387.647 55.8888C387.552 55.5345 387.632 55.0596 387.796 54.7207C388.502 53.2598 389.277 51.8349 390.012 50.3869C390.35 49.7143 390.651 49.0211 391.046 48.1713C391.339 49.0827 391.58 49.799 391.798 50.523C393.195 55.1982 394.214 59.9504 394.8 64.7977C395.347 69.324 395.603 73.858 395.303 78.4125C395.287 78.6487 395.226 78.985 395.064 79.0903C393.76 79.9606 392.427 80.7848 390.954 81.7193L390.951 81.7219ZM356.992 45.6527C357.036 45.7117 357.082 45.7708 357.126 45.8324C355.832 47.5756 354.543 49.3215 353.234 51.0544C353.131 51.1905 352.887 51.2752 352.7 51.2881C351.429 51.3908 350.153 51.4575 348.882 51.5602C344.012 51.9505 339.236 52.8336 334.6 54.4023C333.401 54.808 332.225 55.2829 330.941 55.763C330.579 53.8786 330.225 52.0455 329.863 50.1636C338.728 47.0596 347.76 45.7579 356.992 45.6552V45.6527ZM358.366 42.2817C348.438 42.2766 338.921 43.5243 329.65 46.6694C329.65 45.2573 329.663 43.9402 329.642 42.6232C329.634 42.1533 329.817 41.9505 330.266 41.7939C334.587 40.2766 339 39.0956 343.516 38.3716C347.131 37.7913 350.782 37.4191 354.417 36.9749C354.653 36.9467 355.033 37.0211 355.139 37.1829C356.202 38.808 357.223 40.4614 358.366 42.2843V42.2817ZM347.159 10.9288C348.389 10.1714 349.524 9.49875 350.628 8.77731C351.051 8.50004 351.331 8.55395 351.719 8.8492C357.68 13.3781 362.938 18.6258 367.642 24.4384C367.781 24.6078 367.899 24.9287 367.832 25.1084C367.149 26.9236 366.425 28.7233 365.657 30.6745C360.415 23.1418 354.443 16.5282 347.159 10.9288ZM382.869 85.003C382.836 84.7077 382.813 84.5948 382.815 84.4818C382.833 78.2867 382.053 72.1789 380.787 66.125C380.736 65.8785 380.856 65.5422 381.008 65.3188C382.253 63.4755 383.526 61.6475 384.784 59.8118C384.859 59.704 384.884 59.5602 384.931 59.4318C386.217 64.1687 387.038 68.8028 387.321 73.5088C387.506 76.5845 387.47 79.6731 387.513 82.754C387.516 82.9645 387.398 83.3085 387.246 83.3676C385.832 83.9273 384.399 84.4382 382.869 85.0004V85.003ZM349.932 54.9338C345.888 59.704 341.421 63.9735 336.279 67.5961C334.52 64.8695 333.105 62.0531 332.035 58.9979C337.786 56.4973 343.755 55.3343 349.932 54.9338ZM393.11 43.0878C393.28 43.0776 393.331 43.057 393.37 43.0724C394.335 43.4704 395.303 43.8555 396.258 44.2714C401.652 46.6283 406.777 49.4601 411.549 52.9158C411.909 53.1751 412.017 53.4293 411.901 53.8426C411.567 55.0493 411.257 56.2611 410.928 57.4678C410.884 57.6321 410.787 57.7836 410.71 57.9556C410.581 57.8888 410.494 57.8555 410.417 57.8041C405.711 54.6642 400.705 52.0994 395.49 49.9248C395.275 49.8349 395.064 49.5756 394.982 49.3497C394.34 47.5628 393.716 45.7656 393.121 43.9633C393.033 43.6963 393.108 43.3754 393.108 43.0904L393.11 43.0878ZM330.107 38.2894C330.294 37.3395 330.417 36.559 330.605 35.7965C331.162 33.5269 331.182 33.5551 333.367 32.7259C338.179 30.903 343.144 29.6912 348.22 28.9236C348.476 28.8851 348.867 29.0211 349.033 29.2163C350.181 30.5539 351.285 31.9274 352.397 33.2933C352.487 33.4037 352.541 33.5423 352.646 33.7323C344.944 34.3793 337.48 35.8299 330.104 38.292L330.107 38.2894ZM412.676 49.5936C406.879 45.4935 400.777 42.3587 394.381 39.8144C394.923 38.0943 395.439 36.4666 395.981 34.749C397.236 35.3266 398.443 35.853 399.626 36.4281C404.122 38.6155 408.427 41.1135 412.402 44.1636C412.587 44.3074 412.841 44.5359 412.838 44.7233C412.818 46.2945 412.743 47.8632 412.682 49.5962L412.676 49.5936ZM354.551 6.78759C355.817 6.32289 356.936 5.95575 358.012 5.49619C358.679 5.21121 359.172 5.37039 359.737 5.7401C363.267 8.04304 366.461 10.7542 369.516 13.6476C370.384 14.4692 370.836 15.1983 370.407 16.441C369.914 17.871 369.642 19.3755 369.231 21.0109C364.779 15.7426 360.03 11.0366 354.551 6.78759ZM374.15 86.5845C374.086 86.3817 374.06 86.338 374.06 86.2944C374.071 82.5049 373.716 78.7437 373.205 74.9928C373.169 74.7257 373.313 74.3586 373.498 74.1481C374.815 72.6487 376.163 71.1802 377.503 69.7039C377.629 69.5679 377.773 69.4472 378.045 69.193C378.417 72.0685 378.851 74.7488 379.09 77.4472C379.318 80.0325 379.354 82.6333 379.444 85.2289C379.452 85.4292 379.244 85.7886 379.092 85.8168C377.452 86.1018 375.804 86.3355 374.15 86.5845ZM396.261 53.9505C400.961 56.0377 405.349 58.392 409.575 61.2855C408.753 62.9158 407.95 64.5101 407.172 66.0505C406.99 66.0403 406.964 66.0454 406.946 66.0351C403.965 64.3458 400.982 62.6616 398.014 60.9543C397.811 60.8388 397.629 60.5589 397.578 60.3253C397.293 59.0133 397.059 57.6911 396.795 56.3741C396.64 55.6116 396.461 54.8542 396.261 53.9505ZM406.53 22.8106C407.341 24.3459 408.165 25.871 408.938 27.4165C409.01 27.5603 408.841 27.9505 408.671 28.0661C406.617 29.491 404.52 30.8543 402.484 32.3023C401.308 33.1367 400.201 33.2317 399.015 32.3921C398.792 32.2355 398.512 32.1611 398.258 32.0481C396.856 31.4114 396.874 31.4139 397.151 29.9069C397.252 29.3652 397.49 29.0134 397.976 28.7259C399.149 28.0276 400.312 27.301 401.431 26.5179C403.115 25.3395 404.761 24.1046 406.533 22.8132L406.53 22.8106ZM338.143 19.7221C340.972 21.4782 343.457 23.5269 345.68 25.6989C341.329 26.8594 337 28.0147 332.713 29.1572C334.06 25.8735 335.86 22.7054 338.143 19.7221ZM370.795 86.6127C367.146 86.5511 363.788 86.0967 360.53 85.2161C363.742 82.6718 366.918 80.1558 370.225 77.537C370.415 80.5665 370.602 83.537 370.795 86.6127ZM398.913 76.0582C398.728 72.3021 398.548 68.6359 398.361 64.8156C400.694 66.1892 402.972 67.5268 405.282 68.8875C403.359 71.6115 401.29 73.9581 398.913 76.0582ZM412.504 39.93C409.819 38.2714 407.185 36.6437 404.581 35.0365C406.53 33.722 408.474 32.4101 410.458 31.0699C411.454 33.9788 412.199 36.8928 412.504 39.93ZM398.307 24.6771C398.63 21.0879 398.936 17.6861 399.246 14.2202C401.198 15.9557 402.925 17.8915 404.571 20.0892C402.481 21.6194 400.438 23.1162 398.304 24.6771H398.307ZM363.503 4.06359C366.202 3.58606 368.897 3.29081 371.786 3.37297C371.678 5.85306 371.575 8.23303 371.47 10.6772C368.723 8.39734 366.132 6.24587 363.506 4.06616L363.503 4.06359Z" fill="#FF7841"/>
<path d="M343.21 75C305.876 119.167 210.506 129.041 99.7096 154C42.0001 167 -2.22362 226 2.50004 267C8.20299 316.5 75.3335 364.167 132.5 359C267 346.844 388.209 195.8 660.209 249C1000.21 315.5 1199.5 326.5 1339 216C1439.79 136.166 1573.5 14.5 1786.5 136.5" stroke="#FF7841" stroke-width="3"/>
</svg>
