<svg width="554" height="163" viewBox="0 0 554 163" fill="none" xmlns="http://www.w3.org/2000/svg">
<path d="M442.959 150.014C456.482 159.385 471.506 163.804 487.873 162.425C512.505 160.348 531.328 148.54 543.86 127.143C550.415 115.95 553.543 103.714 552.948 90.7509C551.813 66.0391 540.832 46.7563 520.027 33.3218C508.111 25.6278 494.844 22.0126 480.69 22.7716C454.309 24.1897 434.383 36.4537 421.428 59.5636C414.656 71.6398 412.028 84.7667 413.286 98.5288C414.968 116.889 422.686 132.353 436.356 144.792C436.672 145.08 436.991 145.368 437.311 145.655C438.485 146.974 442.959 150.01 442.959 150.01V150.014ZM441.166 142.244C459.378 129.081 473.528 112.654 484.401 93.3675C495.287 74.0607 501.811 53.4156 503.009 30.9689C504.975 31.7359 506.836 32.4909 508.718 33.182C509.409 33.4337 509.601 33.7772 509.573 34.5322C509.245 43.4726 508.023 52.2851 506.065 61.0097C503.668 71.6878 500.197 81.9943 495.419 91.8375C487.006 109.187 475.537 124.239 460.956 136.851C456.981 140.29 452.607 143.27 448.388 146.426C448.097 146.646 447.442 146.762 447.186 146.59C445.197 145.224 443.263 143.778 441.158 142.244H441.166ZM489.167 28.0447C491.684 28.4841 494.193 28.9595 496.717 29.339C497.544 29.4628 497.816 29.7784 497.736 30.5934C497.357 34.4723 497.141 38.3712 496.629 42.2302C495.579 50.1918 493.629 57.9577 491.097 65.5757C487.621 76.0301 482.983 85.9412 477.231 95.3369C467.895 110.577 456.342 123.856 442.252 134.885C440.643 136.148 438.953 137.306 437.207 138.584C435.293 136.395 433.472 134.318 431.602 132.181C432.617 131.446 433.468 130.843 434.303 130.219C443.846 123.057 452.068 114.564 459.322 105.132C470.368 90.7749 479.16 75.1872 484.589 57.8219C486.631 51.2944 488.089 44.6351 488.676 37.8159C488.948 34.6601 488.999 31.4842 489.167 28.0407V28.0447ZM514.902 36.3738C515.017 36.4178 515.161 36.4417 515.277 36.5137C516.895 37.5323 518.493 38.5869 520.131 39.5697C520.898 40.0291 521.169 40.5963 521.181 41.4952C521.353 52.6686 519.655 63.5943 516.711 74.3323C513.036 87.7428 507.619 100.418 500.173 112.187C490.034 128.214 477.207 141.637 461.296 152.051C460.145 152.806 459.178 153.145 457.86 152.406C456.242 151.5 454.504 150.809 452.895 150.058C491.193 121.691 511.462 83.7001 514.902 36.3738ZM440.958 42.8334C441.098 42.9373 441.242 43.0371 441.382 43.141C441.501 43.2169 441.629 43.2848 441.745 43.3727C453.526 52.2371 463.145 63.111 471.33 75.303C471.494 75.5507 471.574 76.0261 471.45 76.2658C469.988 79.0741 468.478 81.8585 466.884 84.8266C458.511 70.761 448.672 58.3012 435.002 49.301C437.015 47.1158 438.985 44.9746 440.958 42.8334ZM513.719 149.83C513.719 149.195 513.731 148.883 513.719 148.575C513.495 143.454 513.436 138.321 513 133.219C512.321 125.222 510.655 117.384 508.578 109.634C508.43 109.083 508.554 108.344 508.81 107.817C509.908 105.544 511.115 103.326 512.257 101.073C512.784 100.027 513.252 98.9482 513.867 97.6259C514.322 99.0441 514.698 100.159 515.037 101.285C517.211 108.56 518.797 115.954 519.707 123.496C520.558 130.539 520.958 137.594 520.49 144.681C520.466 145.048 520.371 145.571 520.119 145.735C518.089 147.089 516.016 148.372 513.723 149.826L513.719 149.83ZM460.88 93.707C460.948 93.7989 461.02 93.8908 461.088 93.9867C459.074 96.6991 457.069 99.4156 455.032 102.112C454.872 102.324 454.492 102.456 454.201 102.476C452.223 102.635 450.238 102.739 448.261 102.899C440.682 103.506 433.252 104.88 426.038 107.321C424.172 107.952 422.342 108.691 420.345 109.439C419.782 106.506 419.23 103.654 418.667 100.726C432.461 95.8962 446.515 93.8708 460.88 93.711V93.707ZM463.017 88.4619C447.569 88.4539 432.761 90.3954 418.336 95.289C418.336 93.0918 418.356 91.0425 418.324 88.9932C418.312 88.2621 418.595 87.9466 419.294 87.7029C426.018 85.342 432.885 83.5044 439.911 82.3778C445.536 81.475 451.217 80.8958 456.873 80.2047C457.241 80.1607 457.832 80.2766 457.996 80.5282C459.65 83.0569 461.24 85.6296 463.017 88.4659V88.4619ZM445.58 39.6775C447.494 38.4991 449.259 37.4524 450.977 36.3299C451.636 35.8985 452.072 35.9823 452.675 36.4417C461.951 43.4886 470.132 51.6539 477.451 60.6981C477.666 60.9618 477.85 61.4611 477.746 61.7407C476.684 64.5651 475.557 67.3654 474.363 70.4014C466.205 58.6807 456.913 48.3902 445.58 39.6775ZM501.144 154.935C501.092 154.476 501.056 154.3 501.06 154.124C501.088 144.485 499.873 134.981 497.904 125.561C497.824 125.178 498.012 124.655 498.247 124.307C500.185 121.439 502.166 118.595 504.124 115.738C504.24 115.571 504.279 115.347 504.351 115.147C506.353 122.517 507.631 129.728 508.071 137.05C508.358 141.836 508.302 146.642 508.37 151.436C508.374 151.763 508.19 152.299 507.955 152.39C505.754 153.261 503.524 154.056 501.144 154.931V154.935ZM449.894 108.148C443.603 115.571 436.652 122.214 428.65 127.85C425.914 123.608 423.713 119.226 422.047 114.472C430.995 110.581 440.283 108.771 449.894 108.148ZM517.079 89.7162C517.342 89.7003 517.422 89.6683 517.482 89.6923C518.984 90.3115 520.49 90.9107 521.976 91.5578C530.369 95.2251 538.343 99.6313 545.769 105.008C546.329 105.412 546.496 105.807 546.317 106.45C545.797 108.328 545.314 110.214 544.803 112.091C544.735 112.347 544.583 112.582 544.463 112.85C544.263 112.746 544.128 112.694 544.008 112.614C536.685 107.729 528.895 103.738 520.782 100.354C520.446 100.215 520.119 99.8111 519.991 99.4595C518.992 96.6792 518.022 93.8828 517.095 91.0785C516.959 90.663 517.075 90.1637 517.075 89.7202L517.079 89.7162ZM419.047 82.25C419.338 80.7719 419.53 79.5575 419.822 78.371C420.689 74.8397 420.721 74.8836 424.12 73.5933C431.606 70.757 439.332 68.8714 447.23 67.677C447.629 67.6171 448.237 67.8288 448.496 68.1324C450.282 70.2137 452 72.3509 453.729 74.4761C453.869 74.6479 453.953 74.8636 454.117 75.1592C442.133 76.1659 430.52 78.423 419.043 82.254L419.047 82.25ZM547.523 99.839C538.503 93.4594 529.007 88.5817 519.056 84.6229C519.899 81.9464 520.702 79.4137 521.545 76.7412C523.498 77.64 525.376 78.4589 527.218 79.3538C534.212 82.7573 540.912 86.6443 547.096 91.3901C547.383 91.6138 547.779 91.9693 547.775 92.2609C547.743 94.7057 547.627 97.1466 547.531 99.843L547.523 99.839ZM457.081 33.2339C459.051 32.5109 460.792 31.9396 462.466 31.2245C463.505 30.7811 464.272 31.0288 465.151 31.6041C470.643 35.1874 475.613 39.4059 480.367 43.908C481.717 45.1863 482.42 46.3209 481.753 48.2543C480.986 50.4794 480.562 52.8204 479.923 55.3651C472.996 47.1678 465.606 39.8453 457.081 33.2339ZM487.577 157.396C487.477 157.08 487.437 157.012 487.437 156.945C487.453 151.048 486.902 145.196 486.107 139.359C486.051 138.944 486.275 138.373 486.563 138.045C488.612 135.712 490.709 133.427 492.794 131.13C492.99 130.918 493.214 130.731 493.637 130.335C494.217 134.809 494.892 138.98 495.263 143.179C495.619 147.201 495.675 151.248 495.815 155.287C495.827 155.598 495.503 156.158 495.267 156.202C492.715 156.645 490.15 157.008 487.577 157.396ZM521.98 106.618C529.295 109.866 536.122 113.529 542.697 118.031C541.419 120.568 540.169 123.049 538.958 125.446C538.675 125.43 538.635 125.438 538.607 125.422C533.969 122.793 529.327 120.173 524.709 117.516C524.393 117.336 524.11 116.901 524.03 116.537C523.586 114.496 523.223 112.439 522.811 110.389C522.572 109.203 522.292 108.024 521.98 106.618ZM537.96 58.1654C539.222 60.5543 540.504 62.9272 541.707 65.3321C541.819 65.5558 541.555 66.163 541.291 66.3427C538.095 68.5598 534.832 70.6811 531.664 72.9341C529.834 74.2324 528.112 74.3803 526.267 73.074C525.919 72.8303 525.484 72.7144 525.088 72.5387C522.907 71.5479 522.935 71.5519 523.367 69.207C523.522 68.3641 523.894 67.8168 524.649 67.3694C526.475 66.2828 528.284 65.1523 530.026 63.9339C532.646 62.1003 535.207 60.1788 537.964 58.1694L537.96 58.1654ZM431.55 53.3597C435.953 56.0921 439.82 59.28 443.279 62.6595C436.508 64.4652 429.773 66.2628 423.101 68.0405C425.199 62.9312 427.999 58.0016 431.55 53.3597ZM482.356 157.44C476.68 157.344 471.454 156.637 466.385 155.267C471.382 151.308 476.324 147.393 481.469 143.318C481.765 148.032 482.056 152.654 482.356 157.44ZM526.107 141.017C525.819 135.173 525.54 129.468 525.248 123.524C528.879 125.661 532.423 127.743 536.018 129.86C533.026 134.098 529.806 137.75 526.107 141.017ZM547.255 84.8027C543.077 82.222 538.978 79.6893 534.928 77.1886C537.96 75.1433 540.984 73.1019 544.072 71.0166C545.622 75.5427 546.78 80.0768 547.255 84.8027ZM525.164 61.0696C525.668 55.4849 526.143 50.1918 526.626 44.7988C529.662 47.4993 532.351 50.5114 534.912 53.9309C531.66 56.3118 528.48 58.6408 525.16 61.0696H525.164ZM471.011 28.9955C475.209 28.2524 479.404 27.793 483.898 27.9209C483.73 31.7798 483.571 35.483 483.407 39.286C479.132 35.7387 475.102 32.391 471.015 28.9995L471.011 28.9955Z" fill="white"/>
<path d="M439.48 140.673C406.314 153.673 331.88 166.873 299.48 115.673C258.98 51.6727 192.98 56.6727 159.98 70.6727C126.98 84.6727 12.9805 101.173 -12.0195 2.17261" stroke="white" stroke-width="4" stroke-linecap="round"/>
</svg>
