<svg width="1700" height="266" viewBox="0 0 1700 266" fill="none" xmlns="http://www.w3.org/2000/svg">
<path d="M246.46 82.5509C254.837 88.574 264.144 91.4135 274.283 90.5278C289.541 89.1927 301.202 81.6035 308.965 67.8526C313.025 60.6588 314.963 52.7949 314.594 44.4637C313.892 28.5819 307.089 16.1891 294.201 7.55501C286.819 2.61022 278.601 0.28674 269.833 0.774543C253.491 1.68597 241.147 9.56784 233.122 24.4202C228.928 32.1814 227.299 40.6178 228.079 49.4624C229.121 61.2621 233.902 71.2005 242.37 79.1953C242.565 79.3802 242.763 79.565 242.961 79.7499C243.689 80.5971 246.46 82.5483 246.46 82.5483V82.5509ZM245.349 77.5573C256.631 69.0978 265.396 58.5407 272.132 46.1454C278.876 33.7372 282.917 20.469 283.659 6.04282C284.877 6.53576 286.03 7.02099 287.195 7.46515C287.623 7.62689 287.742 7.84769 287.725 8.33293C287.522 14.0787 286.765 19.7424 285.552 25.3496C284.067 32.2122 281.917 38.836 278.957 45.1621C273.746 56.3122 266.641 65.9861 257.609 74.0914C255.146 76.3019 252.437 78.2172 249.824 80.2454C249.643 80.3866 249.237 80.461 249.079 80.3506C247.846 79.4726 246.649 78.5432 245.344 77.5573H245.349ZM275.084 4.16349C276.644 4.4459 278.198 4.75142 279.762 4.99533C280.274 5.07491 280.442 5.27774 280.393 5.80148C280.157 8.29442 280.024 10.8002 279.707 13.2803C279.056 18.3971 277.849 23.3881 276.28 28.2841C274.127 35.0029 271.254 41.3726 267.69 47.4111C261.907 57.2057 254.75 65.7397 246.022 72.8282C245.025 73.6395 243.978 74.3841 242.897 75.2056C241.712 73.7987 240.583 72.4636 239.425 71.0901C240.054 70.6177 240.581 70.23 241.098 69.8295C247.01 65.2262 252.103 59.7679 256.597 53.7063C263.439 44.4791 268.886 34.4612 272.249 23.3008C273.513 19.1057 274.416 14.8258 274.78 10.4433C274.948 8.41508 274.981 6.37401 275.084 4.16093V4.16349ZM291.026 9.51649C291.098 9.54473 291.187 9.56014 291.259 9.60635C292.261 10.261 293.251 10.9388 294.265 11.5704C294.74 11.8656 294.909 12.2302 294.916 12.8079C295.023 19.9889 293.971 27.0107 292.147 33.9118C289.87 42.5305 286.515 50.6768 281.902 58.2403C275.621 68.5407 267.675 77.1671 257.819 83.8603C257.106 84.3455 256.507 84.5637 255.691 84.0888C254.689 83.506 253.612 83.0618 252.615 82.5791C276.339 64.3481 288.895 39.9323 291.026 9.51649ZM245.221 13.668C245.307 13.7347 245.396 13.7989 245.483 13.8656C245.557 13.9144 245.636 13.9581 245.708 14.0145C253.006 19.7116 258.965 26.7 264.035 34.5357C264.137 34.6948 264.186 35.0004 264.11 35.1544C263.204 36.9593 262.268 38.7487 261.281 40.6563C256.094 31.6165 249.999 23.6089 241.531 17.8245C242.778 16.4202 243.998 15.0441 245.221 13.668ZM290.294 82.4328C290.294 82.0246 290.301 81.8243 290.294 81.6266C290.155 78.3353 290.118 75.0362 289.848 71.7576C289.427 66.6177 288.396 61.5805 287.109 56.5998C287.017 56.2455 287.094 55.7705 287.252 55.4316C287.933 53.9708 288.68 52.5459 289.388 51.0979C289.714 50.4252 290.004 49.732 290.385 48.8822C290.667 49.7936 290.9 50.5099 291.11 51.2339C292.456 55.9091 293.439 60.6614 294.003 65.5086C294.53 70.0349 294.778 74.5689 294.488 79.1234C294.473 79.3596 294.414 79.696 294.258 79.8012C293.001 80.6716 291.716 81.4957 290.296 82.4302L290.294 82.4328ZM257.562 46.3636C257.604 46.4227 257.648 46.4817 257.69 46.5433C256.443 48.2866 255.201 50.0324 253.939 51.7654C253.84 51.9015 253.605 51.9862 253.424 51.999C252.199 52.1017 250.969 52.1685 249.744 52.2712C245.05 52.6614 240.447 53.5446 235.978 55.1133C234.822 55.5189 233.689 55.9939 232.452 56.474C232.103 54.5895 231.761 52.7564 231.412 50.8745C239.957 47.7705 248.663 46.4689 257.562 46.3662V46.3636ZM258.886 42.9926C249.316 42.9875 240.143 44.2352 231.207 47.3803C231.207 45.9682 231.219 44.6512 231.199 43.3341C231.192 42.8643 231.368 42.6614 231.801 42.5048C235.966 40.9875 240.219 39.8065 244.572 39.0825C248.057 38.5023 251.576 38.13 255.08 37.6858C255.307 37.6576 255.674 37.7321 255.775 37.8938C256.799 39.519 257.784 41.1724 258.886 42.9952V42.9926ZM248.084 11.6397C249.269 10.8823 250.363 10.2097 251.427 9.48825C251.835 9.21097 252.105 9.26489 252.479 9.56014C258.225 14.089 263.293 19.3367 267.826 25.1493C267.96 25.3187 268.074 25.6397 268.01 25.8194C267.351 27.6345 266.653 29.4343 265.914 31.3855C260.86 23.8528 255.104 17.2392 248.084 11.6397ZM282.503 85.7139C282.471 85.4187 282.449 85.3057 282.451 85.1927C282.469 78.9976 281.716 72.8898 280.497 66.8359C280.447 66.5895 280.563 66.2531 280.709 66.0298C281.91 64.1864 283.137 62.3584 284.349 60.5227C284.421 60.4149 284.446 60.2711 284.491 60.1428C285.73 64.8796 286.522 69.5137 286.794 74.2197C286.973 77.2955 286.938 80.384 286.98 83.4649C286.982 83.6754 286.869 84.0194 286.723 84.0785C285.359 84.6382 283.978 85.1491 282.503 85.7114V85.7139ZM250.756 55.6447C246.859 60.4149 242.553 64.6845 237.596 68.307C235.901 65.5805 234.538 62.7641 233.506 59.7089C239.049 57.2082 244.803 56.0452 250.756 55.6447ZM292.375 43.7988C292.538 43.7885 292.588 43.768 292.625 43.7834C293.555 44.1813 294.488 44.5664 295.409 44.9824C300.608 47.3392 305.547 50.171 310.147 53.6267C310.494 53.886 310.598 54.1402 310.486 54.5536C310.165 55.7602 309.865 56.972 309.549 58.1787C309.507 58.343 309.413 58.4945 309.338 58.6665C309.215 58.5998 309.13 58.5664 309.056 58.515C304.52 55.3751 299.695 52.8103 294.669 50.6357C294.461 50.5459 294.258 50.2866 294.179 50.0606C293.56 48.2737 292.959 46.4766 292.385 44.6743C292.3 44.4073 292.372 44.0863 292.372 43.8014L292.375 43.7988ZM231.647 39.0003C231.828 38.0504 231.947 37.2699 232.127 36.5074C232.664 34.2378 232.684 34.2661 234.79 33.4368C239.428 31.614 244.214 30.4022 249.106 29.6345C249.353 29.596 249.729 29.7321 249.89 29.9272C250.996 31.2648 252.061 32.6384 253.132 34.0042C253.219 34.1146 253.271 34.2532 253.372 34.4432C245.948 35.0902 238.755 36.5408 231.645 39.0029L231.647 39.0003ZM311.234 50.3045C305.646 46.2044 299.764 43.0697 293.6 40.5254C294.122 38.8052 294.619 37.1775 295.141 35.4599C296.351 36.0376 297.515 36.5639 298.655 37.139C302.988 39.3264 307.138 41.8245 310.969 44.8745C311.147 45.0183 311.392 45.2468 311.39 45.4342C311.37 47.0055 311.298 48.5741 311.239 50.3071L311.234 50.3045ZM255.208 7.49853C256.428 7.03383 257.507 6.66669 258.544 6.20713C259.188 5.92215 259.663 6.08133 260.207 6.45103C263.61 8.75398 266.688 11.4651 269.633 14.3586C270.469 15.1801 270.905 15.9093 270.492 17.1519C270.016 18.5819 269.754 20.0864 269.358 21.7218C265.067 16.4536 260.489 11.7475 255.208 7.49853ZM274.1 87.2954C274.038 87.0926 274.013 87.049 274.013 87.0053C274.023 83.2159 273.681 79.4546 273.189 75.7037C273.154 75.4367 273.293 75.0695 273.471 74.859C274.741 73.3597 276.04 71.8911 277.331 70.4149C277.453 70.2788 277.591 70.1581 277.854 69.904C278.212 72.7794 278.631 75.4598 278.861 78.1581C279.081 80.7435 279.116 83.3442 279.202 85.9399C279.21 86.1401 279.009 86.4995 278.863 86.5278C277.282 86.8128 275.693 87.0464 274.1 87.2954ZM295.411 54.6614C299.942 56.7487 304.171 59.103 308.244 61.9964C307.453 63.6267 306.678 65.221 305.928 66.7615C305.753 66.7512 305.728 66.7563 305.71 66.7461C302.837 65.0567 299.962 63.3725 297.101 61.6652C296.906 61.5497 296.73 61.2698 296.681 61.0362C296.406 59.7243 296.181 58.4021 295.926 57.085C295.777 56.3225 295.604 55.5651 295.411 54.6614ZM305.31 23.5216C306.092 25.0569 306.886 26.5819 307.631 28.1275C307.7 28.2712 307.537 28.6615 307.373 28.777C305.394 30.2019 303.372 31.5652 301.41 33.0132C300.276 33.8476 299.21 33.9426 298.066 33.1031C297.851 32.9465 297.581 32.872 297.336 32.759C295.985 32.1223 296.003 32.1249 296.27 30.6178C296.366 30.0761 296.596 29.7244 297.064 29.4368C298.195 28.7385 299.316 28.0119 300.395 27.2289C302.018 26.0505 303.605 24.8155 305.312 23.5241L305.31 23.5216ZM239.393 20.433C242.12 22.1891 244.515 24.2379 246.658 26.4099C242.464 27.5703 238.292 28.7257 234.159 29.8682C235.458 26.5845 237.193 23.4163 239.393 20.433ZM270.865 87.3237C267.349 87.2621 264.112 86.8076 260.972 85.927C264.067 83.3827 267.129 80.8667 270.316 78.248C270.499 81.2775 270.68 84.2479 270.865 87.3237ZM297.967 76.7692C297.789 73.0131 297.616 69.3468 297.435 65.5266C299.685 66.9001 301.88 68.2377 304.107 69.5984C302.253 72.3224 300.259 74.669 297.967 76.7692ZM311.068 40.6409C308.48 38.9824 305.941 37.3547 303.431 35.7475C305.31 34.433 307.183 33.121 309.096 31.7809C310.056 34.6897 310.774 37.6037 311.068 40.6409ZM297.383 25.3881C297.695 21.7989 297.99 18.3971 298.289 14.9311C300.17 16.6667 301.835 18.6025 303.421 20.8001C301.407 22.3303 299.437 23.8271 297.381 25.3881H297.383ZM263.837 4.77453C266.438 4.297 269.037 4.00175 271.82 4.0839C271.717 6.564 271.618 8.94396 271.516 11.3881C268.868 9.10828 266.371 6.95681 263.84 4.7771L263.837 4.77453Z" fill="#FF7841"/>
<path d="M244.277 75.7109C208.292 119.878 110.973 197.511 9.57432 154.711C3.85856 148.878 -4.14351 133.311 9.57432 117.711C26.7216 98.2109 46.963 144.366 46.963 198.211C46.963 241.211 201.182 320.711 340.943 198.211C480.704 75.7109 662.876 83.7109 707.696 100.711C752.516 117.711 1091.8 297.211 1394.94 125.211C1468.51 89.0443 1632.53 59.0109 1700 228.211" stroke="#FF7841" stroke-width="3"/>
</svg>
