<svg width="181" height="81" viewBox="0 0 181 81" fill="none" xmlns="http://www.w3.org/2000/svg">
<g clip-path="url(#clip0_1_13838)">
<path d="M43.8849 71.6036H30.6249C30.1529 71.6036 29.7717 71.218 29.7717 70.7499V41.1563C29.7717 40.6882 29.3905 40.3026 28.9186 40.3026H23.6908C23.2188 40.3026 22.8286 40.6882 22.8286 41.1563V70.7591C22.8286 71.2272 22.4474 71.6127 21.9754 71.6127H8.62464C8.15269 71.6127 7.7715 71.2272 7.7715 70.7591V41.1563C7.7715 40.6882 7.39031 40.3026 6.90928 40.3026H1.55444C1.08249 40.3026 0.701294 40.6882 0.701294 41.1563V77.4415C0.701294 77.9097 1.08249 78.2952 1.55444 78.2952H50.9642C51.4361 78.2952 51.8173 77.9097 51.8173 77.4415V41.1471C51.8173 40.679 51.4361 40.2935 50.9642 40.2935H45.6003C45.1283 40.2935 44.7471 40.679 44.7471 41.1471V70.7499C44.738 71.2272 44.3568 71.6036 43.8849 71.6036Z" fill="#bbbbbb"/>
<path d="M76.3591 39.895H76.2139C65.1866 39.9593 57.1725 47.991 57.1725 58.9785C57.1362 64.4584 59.2418 69.7273 62.9539 73.4448C66.4754 76.9605 71.086 78.8146 76.2956 78.8146C81.5687 78.8146 86.5696 76.6759 90.0185 72.94L91.0169 71.8568C91.3436 71.508 91.3073 70.9573 90.9533 70.6452L87.1414 67.3223C86.7784 67.0011 86.2338 67.047 85.9161 67.4141L84.9632 68.534C82.8848 70.9665 79.0184 72.0771 76.2956 72.0771C70.6412 72.0771 66.1486 68.5432 64.6511 63.3019C64.4968 62.7603 64.9143 62.2279 65.4861 62.2279L93.9666 62.2095C94.4385 62.2095 94.8197 61.824 94.8197 61.3559V60.08C94.8197 60.0616 94.8197 60.0433 94.8197 60.0157C94.8742 59.4374 94.8742 58.7674 94.8742 58.2074C94.8742 53.2323 92.9682 48.6152 89.5012 45.2006C86.0341 41.7676 81.3691 39.895 76.3591 39.895ZM65.5678 55.5822C64.996 55.5822 64.5694 55.0223 64.7418 54.4807C66.3029 49.68 70.5868 46.6233 76.1867 46.5866C81.0151 46.6784 86.1612 49.2119 87.686 54.5174C87.8403 55.059 87.4137 55.5822 86.851 55.5822H65.5678Z" fill="#bbbbbb"/>
<path d="M164.743 40.02C160.377 40.02 156.084 41.3326 152.653 43.7284L151.51 44.527C151.129 44.7932 151.029 45.3072 151.283 45.6836L153.951 49.7591C154.205 50.1538 154.732 50.264 155.131 50.0161L156.338 49.2543C159.007 47.5836 161.738 46.7667 164.67 46.7667C170.923 46.7667 172.748 49.548 173.229 52.3293C173.338 52.9535 172.729 53.4491 172.121 53.2655C169.734 52.5404 167.366 52.2099 165.569 52.2099C154.006 52.366 148.733 59.2412 148.733 65.5656C148.733 68.76 150.067 71.835 152.481 74.2216C154.577 76.2869 158.417 78.7377 164.888 78.7377H165.051C166.394 78.701 169.68 78.6276 173.156 76.9753C173.673 76.7275 174.281 77.0212 174.381 77.5811C174.454 77.985 174.817 78.2788 175.225 78.2788H179.546C180.018 78.2788 180.399 77.8932 180.399 77.4251V54.3762C180.417 45.5183 174.409 40.02 164.743 40.02ZM173.401 61.2514V68.5397C173.401 68.7783 173.301 69.0078 173.129 69.173C170.805 71.2475 167.42 72.0002 165.015 72.0002C158.662 72.0002 155.766 68.6774 155.766 65.584C155.766 62.3713 158.87 58.9107 165.687 58.9107C167.229 58.9107 170.034 59.131 172.929 60.4895C173.22 60.6181 173.401 60.921 173.401 61.2514Z" fill="#bbbbbb"/>
<path d="M11.5358 29.0824C7.85093 29.0824 4.75601 28.3297 2.26919 26.8151C2.10582 26.7142 2.00598 26.5398 2.00598 26.347V22.4183C2.00598 21.9961 2.46886 21.7391 2.8319 21.9502C3.80303 22.5101 4.9103 22.9783 6.14464 23.3546C7.75109 23.8411 9.29401 24.0798 10.7825 24.0798C12.7883 24.0798 14.3493 23.7401 15.4748 23.07C16.5911 22.4 17.1538 21.4637 17.1538 20.2704C17.1538 19.224 16.6546 18.4162 15.6654 17.8563C14.6761 17.2964 13.2965 17.0118 11.5449 17.0118H8.77668C8.46809 17.0118 8.22304 16.764 8.22304 16.461V13.0372C8.22304 12.7343 8.46809 12.4865 8.77668 12.4865H12.1802C15.021 12.4865 16.4368 11.5227 16.4368 9.60422C16.4368 8.7322 15.9921 8.05294 15.1208 7.56644C14.2404 7.07995 13.0333 6.84129 11.4995 6.84129C8.75853 6.84129 6.19909 7.3645 3.83026 8.42011C3.46722 8.58533 3.0588 8.30996 3.0588 7.92443V4.1518C3.0588 3.94068 3.17679 3.75709 3.35831 3.6653C5.72714 2.47201 8.53163 1.87537 11.7627 1.87537C14.8304 1.87537 17.2446 2.5638 19.0326 3.9315C20.8659 5.29919 21.7826 7.09831 21.7826 9.31048C21.7826 10.5588 21.4377 11.6328 20.7479 12.5415C20.285 13.1566 19.7496 13.6522 19.1415 14.0469C18.7966 14.2672 18.8147 14.7813 19.1869 14.974C20.1035 15.4605 20.8659 16.1031 21.4831 16.9108C22.309 17.994 22.7265 19.2974 22.7265 20.812C22.7265 23.1251 21.7191 25.0986 19.7133 26.7142C17.7256 28.293 15.0028 29.0824 11.5358 29.0824Z" fill="#bbbbbb"/>
<path d="M29.6237 28.5526H25.1402C24.7499 28.5526 24.4776 28.1487 24.6319 27.7907L35.4596 2.58472C35.5503 2.38278 35.7409 2.25427 35.9678 2.25427H40.4332C40.651 2.25427 40.8507 2.38278 40.9415 2.58472L51.7691 27.7999C51.9234 28.1579 51.6602 28.5617 51.2609 28.5617H46.6957C46.4778 28.5617 46.2782 28.4332 46.1874 28.2313L43.873 22.8431C43.7823 22.6412 43.5826 22.5127 43.3648 22.5127H32.9455C32.7277 22.5127 32.5189 22.6412 32.4373 22.8431L30.1229 28.2313C30.0412 28.4241 29.8415 28.5526 29.6237 28.5526ZM37.6469 10.1667L34.6064 17.2989C34.4521 17.6569 34.7153 18.0608 35.1147 18.0608H41.1684C41.5586 18.0608 41.8309 17.6661 41.6766 17.2989L38.6634 10.1759C38.4728 9.72611 37.8375 9.72611 37.6469 10.1667Z" fill="#bbbbbb"/>
<path d="M68.8637 28.5477H56.1573C55.8578 28.5477 55.6036 28.2998 55.6036 27.9969V2.93783C55.6036 2.63492 55.8487 2.38708 56.1573 2.38708H68.0015C70.4338 2.38708 72.3761 2.96537 73.8192 4.10359C75.2623 5.25098 75.9883 6.85734 75.9883 8.92265C75.9883 10.1894 75.6707 11.2725 75.0444 12.1721C74.6632 12.7228 74.2094 13.1818 73.7012 13.5398C73.3563 13.7876 73.438 14.3108 73.8282 14.476C74.7903 14.8799 75.6525 15.5316 76.4331 16.4312C77.4859 17.652 78.0214 19.2125 78.0214 21.1034C78.0214 23.3156 77.1954 25.1147 75.5345 26.4824C73.9009 27.8684 71.6772 28.5477 68.8637 28.5477ZM61.0311 7.42644V12.0803C61.0311 12.3832 61.2761 12.631 61.5847 12.631H67.1302C68.2647 12.631 69.145 12.3832 69.7894 11.8783C70.4338 11.3827 70.7515 10.685 70.7515 9.78549C70.7515 8.86757 70.4338 8.1516 69.7894 7.63756C69.145 7.13271 68.2647 6.86651 67.1302 6.86651H61.5756C61.2761 6.87569 61.0311 7.12353 61.0311 7.42644ZM61.0311 17.6245V23.3706C61.0311 23.6736 61.2761 23.9214 61.5847 23.9214H67.8562C69.2086 23.9214 70.2705 23.6277 71.0238 23.0402C71.7771 22.4527 72.1583 21.6174 72.1583 20.5159C72.1583 19.4236 71.7861 18.5699 71.0238 17.9733C70.2705 17.3767 69.2176 17.0737 67.8562 17.0737H61.5847C61.2761 17.0829 61.0311 17.3216 61.0311 17.6245Z" fill="#bbbbbb"/>
<path d="M79.674 6.66457V2.93783C79.674 2.63492 79.919 2.38708 80.2276 2.38708H101.239C101.538 2.38708 101.792 2.63492 101.792 2.93783V6.66457C101.792 6.96748 101.547 7.21532 101.239 7.21532H93.9777C93.6782 7.21532 93.4241 7.46316 93.4241 7.76607V28.0153C93.4241 28.3182 93.179 28.566 92.8705 28.566H88.5503C88.2508 28.566 87.9966 28.3182 87.9966 28.0153V7.75689C87.9966 7.45398 87.7516 7.20614 87.443 7.20614H80.2185C79.9281 7.21532 79.674 6.96748 79.674 6.66457Z" fill="#bbbbbb"/>
<path d="M110.696 28.5516H106.376C106.077 28.5516 105.822 28.3038 105.822 28.0008V2.94174C105.822 2.63883 106.067 2.39099 106.376 2.39099H117.349C120.19 2.39099 122.422 3.12532 124.056 4.59399C125.717 6.0443 126.543 7.9352 126.543 10.2759C126.543 12.6441 125.717 14.5534 124.056 15.9945C122.422 17.4632 120.19 18.1975 117.349 18.1975H111.794C111.495 18.1975 111.241 18.4453 111.241 18.7483V28.01C111.25 28.3129 111.005 28.5516 110.696 28.5516ZM111.25 7.65065V13.0572C111.25 13.3601 111.495 13.6079 111.803 13.6079H116.977C118.284 13.6079 119.3 13.3325 120.026 12.7634C120.752 12.2035 121.115 11.4049 121.115 10.3585C121.115 9.31208 120.752 8.50431 120.026 7.94438C119.3 7.38445 118.284 7.0999 116.977 7.0999H111.803C111.495 7.0999 111.25 7.34774 111.25 7.65065Z" fill="#bbbbbb"/>
<path d="M130.729 28.55H126.246C125.855 28.55 125.583 28.1461 125.737 27.7882L136.565 2.573C136.656 2.37106 136.846 2.24255 137.073 2.24255H141.539C141.757 2.24255 141.956 2.37106 142.047 2.573L152.875 27.7882C153.029 28.1461 152.766 28.55 152.366 28.55H147.81C147.592 28.55 147.384 28.4215 147.302 28.2196L144.988 22.8314C144.897 22.6295 144.706 22.501 144.479 22.501H134.06C133.842 22.501 133.633 22.6295 133.552 22.8314L131.237 28.2196C131.147 28.4215 130.956 28.55 130.729 28.55ZM138.761 10.1642L135.712 17.2964C135.558 17.6544 135.821 18.0582 136.22 18.0582H142.283C142.673 18.0582 142.945 17.6635 142.791 17.2964L139.778 10.1733C139.587 9.72357 138.952 9.72357 138.761 10.1642Z" fill="#bbbbbb"/>
<path d="M161.601 28.5516H157.28C156.981 28.5516 156.727 28.3038 156.727 28.0008V2.94174C156.727 2.63883 156.972 2.39099 157.28 2.39099H161.601C161.9 2.39099 162.154 2.63883 162.154 2.94174V11.3223C162.154 11.818 162.771 12.0566 163.107 11.6987L171.711 2.57457C171.811 2.46442 171.965 2.40017 172.12 2.40017H177.248C177.729 2.40017 177.983 2.96928 177.647 3.31809L167.663 14.0302C167.473 14.2413 167.464 14.5626 167.663 14.7737L179.58 27.652C179.907 28.0008 179.653 28.57 179.172 28.57H173.735C173.581 28.57 173.436 28.5057 173.336 28.3955L163.107 17.4999C162.762 17.1327 162.154 17.3714 162.154 17.8762V28.01C162.154 28.3129 161.9 28.5516 161.601 28.5516Z" fill="#bbbbbb"/>
<path d="M123.954 39.4185H120.832C109.605 39.4185 100.229 48.5242 100.429 59.6585C100.62 70.4715 109.541 79.2009 120.478 79.2009H123.6C134.818 79.2009 144.194 70.0952 144.003 58.9609C143.821 48.157 134.891 39.4185 123.954 39.4185ZM125.642 47.2391C125.642 46.7251 126.123 46.3304 126.631 46.4313C132.658 47.6613 137.205 52.9761 137.205 59.3189C137.205 65.6617 132.658 70.9672 126.631 72.2064C126.123 72.3166 125.642 71.9127 125.642 71.3986V47.2391ZM118.79 47.2391V71.3895C118.79 71.9035 118.309 72.2982 117.801 72.1972C111.774 70.9672 107.227 65.6525 107.227 59.3097C107.227 52.9669 111.774 47.6613 117.801 46.4222C118.309 46.3212 118.79 46.7159 118.79 47.2391Z" fill="#bbbbbb"/>
<path d="M151.781 3.61141V6.87001C151.781 8.40293 149.667 8.82517 149.058 7.42076L147.661 4.15298C147.243 3.17081 147.969 2.07849 149.049 2.07849H150.229C151.092 2.07849 151.781 2.76693 151.781 3.61141Z" fill="#bbbbbb"/>
</g>
<defs>
<clipPath id="clip0_1_13838">
<rect width="180.095" height="80.0423" fill="white" transform="translate(0.517822 0.515991)"/>
</clipPath>
</defs>
</svg>
