<svg width="190" height="41" viewBox="0 0 190 41" fill="none" xmlns="http://www.w3.org/2000/svg">
<g clip-path="url(#clip0_1_13790)">
<path d="M19.2169 1L15.0577 16.6616H14.6372L10.4781 1H0V32.2189H8.31827V16.5573H8.73877L13.0049 32.2189H16.6901L20.9562 16.5573H21.3767V32.2189H29.695V1H19.2169Z" fill="#bbbbbb"/>
<path d="M33.9162 0.999878V32.2187H50.3387V27.8709H42.6015V18.7041H48.9702V14.3562H42.6015V5.34774H50.3387V0.999878H33.9162Z" fill="#bbbbbb"/>
<path d="M70.0186 33.8483H70.4391L71.3374 40.0264H75.443V24.6313H64.4374L64.2386 28.9791H66.9757L67.0292 30.6009C67.0827 32.9447 65.9779 33.9023 64.5559 33.9023C63.1338 33.9023 62.1858 32.9447 62.2393 30.6009L62.5031 24.4228L62.2928 18.1056C62.2393 15.7657 63.1873 14.8081 64.5559 14.8081C65.9244 14.8081 66.7654 15.7657 66.7654 18.1056V20.963H75.4583C75.4583 20.963 75.4583 20.963 75.4583 19.5961C75.4583 12.9971 71.0889 8.04688 64.5597 8.04688C58.0305 8.04688 53.9172 12.9894 53.6993 19.5884L53.4355 24.415L53.6993 28.9019C53.9096 35.4971 57.3309 40.4473 63.3326 40.4473C66.7731 40.4473 68.65 36.2423 70.0186 33.8483Z" fill="#bbbbbb"/>
<path d="M101.341 28.9048L101.605 24.418L101.341 19.85C101.131 13.251 96.9721 8.30078 90.4428 8.30078C83.9136 8.30078 79.808 13.251 79.5978 19.85L79.334 24.418L79.5978 28.9048C79.808 35.5 83.9136 40.4502 90.4428 40.4502C96.9721 40.4502 101.146 35.5 101.341 28.9048ZM88.2333 30.2331L88.39 24.418L88.2333 18.3789C88.1798 16.0389 89.0743 15.0774 90.4428 15.0774C91.8114 15.0774 92.7059 16.0389 92.6524 18.3789L92.4956 24.4373L92.6524 30.2524C92.7059 32.5924 91.8114 33.55 90.4428 33.55C89.0743 33.55 88.1798 32.5924 88.2333 30.2524" fill="#bbbbbb"/>
<path d="M118.12 32.2189C123.228 32.2189 126.703 30.6743 126.913 25.504L127.02 23.666C126.703 16.5882 120.701 16.4492 118.067 15.9163V15.4916C120.701 14.8004 126.439 14.8738 126.859 8.64929L126.756 7.71485C126.381 2.54453 123.067 1 117.96 1H105.219V32.2189H118.12ZM115.38 12.3523H113.915V5.34786H115.391C117.023 5.34786 118.067 5.34786 118.067 7.31714L118.017 8.64929L118.067 9.97759C118.067 12.4102 117.016 12.3523 115.391 12.3523H115.38ZM113.915 28.0061V19.2718H115.391C117.023 19.2718 118.067 19.2718 118.067 22.303L118.017 23.666L118.067 24.9711C118.067 28.0061 117.016 28.0061 115.391 28.0061H113.915Z" fill="#bbbbbb"/>
<path d="M144.371 32.2733H152.323L146.004 1.03516H135.334L129 32.2733H137.001L137.834 26.5277H143.53L144.371 32.2733ZM138.844 19.5309L139.88 12.3836H141.493L142.525 19.5309H138.844Z" fill="#bbbbbb"/>
<path d="M189.177 1.03516H180.492V32.254H189.177V1.03516Z" fill="#bbbbbb"/>
<path d="M163.644 32.2768V19.3104H165.12C166.752 19.3104 167.796 19.5382 167.796 22.3416V32.2768H176.695V23.0096C176.695 18.3258 170.43 16.677 167.796 16.1441V15.4916C170.43 14.8004 176.167 14.8738 176.588 8.64929L176.485 7.71099C176.122 2.54453 172.8 1 167.7 1H154.955V32.2768H163.644ZM163.644 12.3716V5.34786H165.12C166.752 5.34786 167.796 5.34786 167.796 7.31713L167.742 8.64929L167.796 9.97759C167.796 12.3909 166.744 12.3523 165.12 12.3523L163.644 12.3716Z" fill="#bbbbbb"/>
<path d="M50.3341 35.6719H0.000183105V40.0197H50.3341V35.6719Z" fill="#bbbbbb"/>
<path d="M189.166 35.6719H105.219V40.0197H189.166V35.6719Z" fill="#bbbbbb"/>
<path d="M101.61 1H53.4355V5.34786H101.61V1Z" fill="#bbbbbb"/>
</g>
<defs>
<clipPath id="clip0_1_13790">
<rect width="189.168" height="39.4473" fill="white" transform="translate(0 0.813477)"/>
</clipPath>
</defs>
</svg>
