<svg width="192" height="105" viewBox="0 0 192 105" fill="none" xmlns="http://www.w3.org/2000/svg">
<g clip-path="url(#clip0_1_13805)">
<path d="M33.2932 46.4055C39.2986 45.6896 45.315 45.0855 51.3422 44.593C51.3422 44.6346 51.3422 44.6791 51.36 44.7176C51.639 46.8416 55.0196 46.8683 54.7377 44.7176C54.7198 44.593 54.702 44.4625 54.6842 44.332C67.7438 43.3432 80.8351 42.8211 93.958 42.7657C115.515 42.6411 136.942 44.8926 158.419 46.4055C160.589 46.5598 160.58 43.184 158.419 43.0327C136.942 41.5168 115.515 39.2653 93.958 39.3899C86.9652 39.4314 79.9724 39.5965 72.9795 39.8853C73.769 39.7666 74.514 39.1792 74.5022 38.2507C74.4606 33.8782 72.6441 25.8776 78.7406 25.0085C85.6741 24.0206 88.6926 31.0007 90.4141 36.4471C90.9662 38.2003 93.8126 37.9719 93.7295 35.9992C93.59 32.6619 94.4566 27.0019 99.0008 27.3075C103.281 27.6041 103.955 32.6768 103.566 35.9992C103.328 38.0134 106.267 38.0994 106.881 36.4471C108.125 33.098 108.125 27.0405 112.752 26.7883C118.219 26.4917 120.855 32.9378 120.985 37.4676C121.039 39.381 123.725 39.7458 124.304 37.9155C125.619 33.7358 125.758 23.1425 131.13 21.9352C135.262 21.0067 138.049 24.78 138.512 28.3635C138.91 31.4575 138.39 34.6346 137.978 37.699C137.681 39.823 140.946 40.7396 141.243 38.5889C141.62 35.7945 141.982 32.4424 141.768 29.2802C142.602 28.7492 144.481 28.6157 145.33 28.2834C146.431 27.881 147.462 27.3095 148.387 26.5896C150.405 24.9729 151.652 22.5849 152.931 20.3867C154.026 18.503 151.106 16.8003 150.016 18.681C148.704 20.9444 147.473 23.5371 145.027 24.7563C144.065 25.2339 142.56 25.4505 141.255 25.8806C140.272 21.9115 137.823 18.8204 132.481 18.5C126.043 18.1174 123.954 24.3499 122.624 30.2205C120.902 26.5925 117.919 23.7062 113.666 23.4214C109.143 23.1248 107.154 25.5661 105.86 28.7343C104.628 26.0645 102.384 24.0473 98.9859 23.9316C94.9345 23.7952 92.4947 26.3997 91.2689 29.6836C88.6689 24.6999 84.6293 20.7397 78.2093 21.6742C74.7782 22.1666 72.9469 23.9079 71.9763 26.2277C70.0857 20.4164 66.7406 15.4742 60.0772 16.468C54.0223 17.3579 51.3629 21.1224 50.3864 25.8509C45.9046 24.2372 42.5566 20.8969 38.9949 17.7822C37.3654 16.3553 34.9672 18.7344 36.6056 20.1702C40.7609 23.7892 44.6461 27.5715 49.962 29.2683C49.7394 33.2374 50.3004 37.5358 50.8376 41.2706C44.9667 41.7591 39.1077 42.3524 33.2606 43.0505C31.1621 43.2848 31.1354 46.6636 33.2932 46.4055ZM60.5492 19.7993C69.2071 18.4941 70.243 32.9734 71.1868 38.6987C71.2322 39.0291 71.3946 39.3323 71.6446 39.5533C71.8946 39.7743 72.2155 39.8984 72.5492 39.9031C66.4151 40.1641 60.2811 40.529 54.147 40.9977C52.8232 33.0179 51.0483 21.2292 60.5492 19.7993Z" fill="#bbbbbb"/>
<path d="M51.0258 8.76341C51.0258 8.85537 51.0258 8.94733 51.0436 9.04225C51.1326 9.99647 51.5226 10.8977 52.1575 11.616C52.7923 12.3342 53.6391 12.8322 54.5756 13.0381C57.1786 13.6314 60.6632 13.2813 62.0166 10.6441C64.0052 6.76104 60.5623 0.237796 56.0804 0.0924393C52.4801 -0.0262192 50.818 3.94884 50.073 6.82631C49.961 7.20978 49.9967 7.62127 50.173 7.97978C50.3493 8.33829 50.6536 8.61784 51.0258 8.76341ZM55.4779 3.57803L55.5788 3.5276C55.6285 3.51101 55.679 3.49715 55.7302 3.48607L55.8074 3.46827H55.8252C55.9384 3.4683 56.0514 3.47623 56.1635 3.492C56.242 3.51024 56.3193 3.53303 56.3951 3.56023L56.5049 3.5988L56.5761 3.64329C56.7097 3.72042 56.8403 3.79755 56.9738 3.88358C57.1074 3.9696 56.8967 3.78865 57.1757 4.03783C57.4394 4.27262 57.6845 4.52751 57.9088 4.80021C57.9266 4.82691 58.075 5.01973 58.1106 5.07609C58.2056 5.22442 58.3035 5.37274 58.3926 5.52403C58.4816 5.67532 58.5885 5.88001 58.6894 6.06096C58.722 6.12919 58.7547 6.19742 58.7844 6.26565C58.7889 6.27725 58.7948 6.28822 58.8022 6.29828C58.8063 6.31663 58.8123 6.33452 58.82 6.35167C58.9382 6.67688 59.0373 7.0087 59.1168 7.34544C59.1346 7.4107 59.1851 7.76074 59.188 7.74591C59.2014 7.88194 59.2073 8.0186 59.2058 8.15528C59.2058 8.28877 59.2058 8.42226 59.2058 8.55575C59.2058 8.60025 59.1672 8.72781 59.1435 8.81384C59.1021 8.99015 59.0242 9.15586 58.915 9.30033C58.8437 9.40416 58.8022 9.44866 58.5469 9.59698C58.4987 9.61944 58.4521 9.64521 58.4074 9.67411L58.3481 9.69487C58.1153 9.77503 57.8759 9.83459 57.6327 9.87286C57.144 9.89267 56.6545 9.88574 56.1665 9.8521C55.6768 9.81947 55.0624 9.8165 54.6825 9.43976C53.9464 8.66551 54.632 7.3929 55.3622 6.8708C56.5791 6.0046 56.1428 4.33151 55.1692 3.80645L55.2998 3.69669C55.2998 3.69669 55.2316 3.70559 55.4838 3.57803H55.4779Z" fill="#bbbbbb"/>
<path d="M81.953 18.0684C83.9357 17.3386 85.7403 15.7368 85.5741 13.4467C85.4346 11.4947 83.998 9.8869 82.1904 9.24911C80.8944 8.80604 79.4768 8.88369 78.2369 9.46566C78.0022 9.40987 77.7643 9.36827 77.5246 9.34107C76.931 9.27284 76.3819 9.72374 76.0673 10.1776C74.7939 12.0316 73.948 14.7133 75.251 16.781C76.6787 19.074 79.721 18.8901 81.953 18.0684ZM82.0836 13.2449C82.1086 13.383 82.1505 13.5175 82.2082 13.6454C82.2082 13.7581 82.1518 13.9954 82.2082 13.8501C82.2018 13.8733 82.1939 13.8961 82.1845 13.9183C81.8387 14.393 81.3498 14.7444 80.7895 14.921C80.092 15.1642 78.976 15.5143 78.2993 15.1791C78.0262 15.0426 77.9461 14.746 77.9846 14.2417C77.9968 14.088 78.0196 13.9353 78.0529 13.7848L78.1687 13.6543C78.2933 13.7433 78.421 13.8293 78.5515 13.9094C79.8189 14.6837 81.0091 13.5772 81.0536 12.4262C81.1308 12.4529 81.211 12.4796 81.2911 12.5122C81.6193 12.6766 81.894 12.9307 82.0836 13.2449Z" fill="#bbbbbb"/>
<path d="M92.9164 17.3494C93.2466 18.7154 94.0592 19.9163 95.2048 20.7311C95.8681 21.1594 96.6465 21.375 97.4358 21.349C98.2251 21.3231 98.9876 21.0568 99.6213 20.5858C102.043 18.9008 103.97 14.5787 101.699 12.0364C100.102 10.2328 97.4308 10.6155 95.3532 11.277C94.971 11.3919 94.6432 11.6411 94.4305 11.9786C94.2177 12.3161 94.1343 12.7191 94.1956 13.1133C93.2043 14.3058 92.5454 15.7356 92.9164 17.3494ZM97.2587 18.0346C97.2439 18.0406 97.2439 18.0406 97.2587 18.0346V18.0346ZM98.7279 14.0981C98.6863 14.0981 98.9505 14.1486 98.995 14.1604C99.0209 14.1703 99.0478 14.1773 99.0752 14.1812L99.1553 14.2376L99.1791 14.2583L99.2087 14.291C99.2151 14.3118 99.2241 14.3317 99.2354 14.3503C99.2726 14.4583 99.2994 14.5695 99.3156 14.6825C99.2265 14.2761 99.28 14.8576 99.28 15.1216C99.2753 15.1685 99.2673 15.2151 99.2562 15.261C99.2058 15.433 99.1642 15.6051 99.1167 15.7772C99.093 15.8602 99.0633 15.9433 99.0336 16.0263C99.0514 15.97 98.9238 16.2666 98.8912 16.323C98.751 16.5868 98.5974 16.8432 98.4311 17.0913L98.3895 17.1536L98.3213 17.2278C98.2174 17.3405 98.1105 17.4502 98.0037 17.56C97.9562 17.6105 97.9056 17.658 97.8523 17.7024C97.8523 17.6846 97.6208 17.8626 97.5555 17.8922L97.4071 17.9694L97.2913 18.0139L97.3388 17.9961C97.5258 17.9249 97.3715 17.9961 97.235 17.9961L97.1608 17.9723C97.1815 18.005 97.1608 18.0198 97.0598 17.9278L96.9352 17.8121C96.8966 17.7706 96.6948 17.5452 96.7541 17.6253C96.5048 17.3108 96.1872 16.848 96.1605 16.4387C96.1368 15.8721 96.6354 15.4004 96.9945 15.0266C97.2256 14.7935 97.3826 14.4973 97.4457 14.1753C97.8661 14.0804 98.2991 14.0543 98.7279 14.0981Z" fill="#bbbbbb"/>
<path d="M97.1597 17.9741H97.1741C97.1453 17.9367 97.0992 17.8878 97.1597 17.9741Z" fill="#bbbbbb"/>
<path d="M116.979 19.9368C117.979 19.4407 118.777 18.613 119.235 17.5948C119.693 16.5766 119.783 15.4311 119.49 14.3539C118.849 12.1854 116.819 11.3103 114.785 11.5239C114.564 11.3142 114.321 11.1302 114.058 10.9751C113.671 10.7576 113.214 10.6979 112.783 10.8084C112.353 10.9189 111.981 11.1911 111.746 11.5684C110.586 13.3839 109.87 15.8876 110.684 17.973C111.654 20.4826 114.714 21.067 116.979 19.9368ZM115.067 17.0356C114.7 17.1499 114.305 17.1331 113.948 16.9881C113.987 16.9881 113.803 16.8012 113.856 16.9051C113.776 16.7163 113.726 16.5161 113.708 16.3118C113.673 15.9847 113.691 15.6541 113.761 15.3328C114.492 15.8193 115.352 15.496 115.839 14.8582C115.879 14.8685 115.918 14.8824 115.955 14.8997C116.157 15.0036 116.21 15.1489 116.284 15.4248C116.433 16.0122 115.94 16.8339 115.067 17.0356Z" fill="#bbbbbb"/>
<path d="M136.134 16.848C138.107 16.4446 139.633 14.5876 140.604 12.9441C141.539 11.3689 142.435 9.1975 141.823 7.35236C140.894 4.55499 137.932 5.15718 135.712 6.12424C134.721 5.84836 133.691 5.86023 132.777 6.46835C130.904 7.7202 131.023 10.476 131.394 12.4191C131.845 14.7715 133.332 17.4235 136.134 16.848ZM137.561 11.452C137.457 11.6181 137.351 11.7813 137.238 11.9415C137.199 11.9949 137.161 12.0453 137.125 12.0987C137.117 12.1111 137.108 12.123 137.098 12.1343C136.879 12.3924 136.659 12.6505 136.413 12.8878C136.303 12.9946 136.178 13.0895 136.068 13.1844C135.985 13.2289 135.911 13.2971 135.834 13.3446C135.757 13.3921 135.635 13.4395 135.537 13.4959C135.501 13.5104 135.465 13.5223 135.427 13.5315H135.395L135.323 13.4662C135.243 13.312 135.157 13.1696 135.077 13.0094C135.077 12.9797 134.92 12.5941 134.887 12.4843C134.793 12.1674 134.717 11.8456 134.658 11.5202C134.555 10.9227 134.535 10.3137 134.599 9.71069C134.783 9.8105 134.985 9.87148 135.194 9.88985C135.402 9.90823 135.612 9.88359 135.81 9.81749C135.985 9.92131 136.154 10.0281 136.324 10.1379C136.482 10.2546 136.661 10.3385 136.852 10.3845C137.043 10.4304 137.242 10.4376 137.435 10.4055C137.629 10.3734 137.814 10.3027 137.98 10.1976C138.146 10.0925 138.289 9.95519 138.401 9.79376C138.357 9.92725 138.306 10.0548 138.262 10.1853C138.217 10.3159 138.161 10.4078 138.107 10.5146C137.926 10.835 137.751 11.1465 137.561 11.452ZM138.621 8.46775V8.48555H138.606L138.621 8.46775Z" fill="#bbbbbb"/>
<path d="M127.073 73.5671C128.097 71.6508 125.182 69.945 124.158 71.8643C121.831 76.225 117.287 71.5914 117.702 68.0821C117.863 66.7531 118.628 65.3797 119.311 64.2583C119.649 63.7066 120.148 62.7484 120.748 62.4458C121.157 62.2411 120.857 62.2174 121.252 63.0095C122.217 64.9555 125.132 63.2468 124.17 61.3067C121.579 56.0798 117.406 60.3485 115.432 64.4482C114.164 60.8439 111.066 58.183 106.017 59.3548C103.898 59.8472 104.794 63.1014 106.907 62.6179C115.105 60.7134 114.577 76.667 107.311 73.4484C105.34 72.5763 103.622 75.4834 105.607 76.3645C110.721 78.6308 114.031 76.2132 115.384 72.5437C117.86 77.0527 123.974 79.3754 127.073 73.5671Z" fill="#bbbbbb"/>
<path d="M147.006 61.3593C147.802 59.3362 144.537 58.4611 143.741 60.4694C142.499 63.5893 141.04 66.6185 139.375 69.5349C136.852 66.9422 135.463 63.427 133.875 60.2202C132.911 58.2713 129.999 59.9799 130.958 61.923C132.801 65.6459 134.451 69.707 137.612 72.5192C136.821 73.8007 135.991 75.0674 135.122 76.3192C134.51 77.2091 131.964 81.1427 130.432 81.9881C130.296 81.6989 130.082 81.4537 129.813 81.2806C129.544 81.1075 129.232 81.0134 128.913 81.0092H128.01C127.715 81.0138 127.426 81.095 127.171 81.245C126.917 81.3949 126.706 81.6084 126.559 81.8645C126.412 82.1206 126.334 82.4105 126.333 82.7057C126.332 83.0009 126.408 83.2914 126.553 83.5485C132.13 93.762 145.902 64.1834 147.006 61.3593Z" fill="#bbbbbb"/>
<path d="M7.03406 59.229C6.66231 58.9952 6.21329 58.9174 5.78449 59.0125C5.61828 59.0481 5.458 59.0896 5.30069 59.1371C4.77083 59.1362 4.24146 59.1689 3.71573 59.2349C3.45437 59.2743 3.2042 59.3681 2.98141 59.5102C2.75861 59.6523 2.56816 59.8397 2.42239 60.06C2.27662 60.2804 2.17877 60.5289 2.13518 60.7894C2.09159 61.05 2.10324 61.3168 2.16936 61.5725C0.0352996 64.6962 -0.205116 69.7985 1.57574 72.6404C4.41323 77.2147 10.9519 77.2147 15.229 74.8415C19.3368 72.5366 20.8683 67.5707 17.4075 63.9724C14.9321 61.4034 10.8599 59.6413 7.03406 59.229ZM15.1844 70.5965C13.4036 72.8065 9.23044 73.7083 6.63337 72.6433C4.67739 71.8394 3.74244 70.0863 3.76916 68.0542C3.78697 66.4523 4.34497 63.7024 5.82604 62.6523C10.5334 63.1744 18.8174 66.0993 15.1844 70.5965Z" fill="#bbbbbb"/>
<path d="M62.5253 73.8386C62.6262 75.3692 64.8998 76.3126 65.6715 74.6899C66.381 73.2908 67.3952 72.0683 68.6396 71.1124C70.3819 75.4493 75.6591 76.6804 80.1024 76.3719C82.2602 76.2206 82.275 72.8448 80.1024 72.9961C77.348 73.1889 73.4598 73.0702 71.946 70.2729C70.2394 67.1284 72.1568 61.9668 76.1518 62.6253C78.277 62.9694 79.1912 59.7182 77.0423 59.3622C71.6641 58.493 68.1053 62.4622 68.0133 67.4191C67.9088 67.4674 67.8094 67.5261 67.7165 67.5941C67.0902 68.0451 66.4818 68.5197 65.906 69.021C66.0336 66.5974 66.3037 64.1738 66.4996 61.7443C66.6777 59.5788 63.3 59.5936 63.1219 61.7443C62.9824 63.4381 61.9347 65.0074 60.6109 66.1673C59.2575 61.8303 53.2975 57.0691 49.1244 59.7835C47.3079 60.97 48.9968 63.8861 50.8281 62.6965C53.3064 61.0887 57.3816 65.663 57.5241 67.959C57.7764 72.0379 52.7128 73.6101 49.4687 73.1414C47.3435 72.83 46.4234 76.0812 48.5783 76.4045C53.3628 77.0987 59.391 75.0073 60.6703 70.1898C60.7856 70.1511 60.8969 70.1014 61.0027 70.0415C61.5421 69.7262 62.0553 69.3681 62.5372 68.9706C62.4383 70.5916 62.4343 72.2171 62.5253 73.8386Z" fill="#bbbbbb"/>
<path d="M42.522 78.277C43.7923 75.978 43.3352 73.3052 43.2699 70.7837C43.2616 70.3387 43.081 69.9142 42.766 69.5995C42.4511 69.2847 42.0264 69.1042 41.5811 69.0958C40.8371 69.076 40.0921 69.076 39.3461 69.0958C39.0849 66.5091 39.6429 63.8749 39.7053 61.294C39.726 60.3181 38.9128 59.6892 38.0164 59.6061C34.609 59.2798 31.5341 58.2089 28.6491 60.1668C28.2766 60.2279 27.9392 60.423 27.7004 60.7152C27.4615 61.0074 27.3377 61.3768 27.3521 61.7538C27.3521 64.4236 27.3521 67.0935 27.0167 69.7633C26.052 69.787 25.0874 69.7989 24.1198 69.7633C22.9326 69.7306 22.2974 70.8638 22.4903 71.9021C22.8792 73.9786 22.8673 76.1204 23.1225 78.2236C23.3778 80.3268 26.7614 80.3802 26.5002 78.2236C26.2954 76.5327 26.2242 74.8389 26.0461 73.151C30.709 73.1035 35.3481 72.4984 40.011 72.4806C40.1356 73.9134 40.2276 75.4648 39.6043 76.5921C38.5418 78.4758 41.4564 80.1845 42.522 78.277ZM35.9922 69.2085C34.1223 69.3183 32.2524 69.4607 30.3825 69.5764C30.6047 67.3238 30.7127 65.0615 30.706 62.798C32.2613 61.8399 34.3538 62.2967 36.2504 62.6764C36.1287 64.8745 35.8586 67.0282 35.9922 69.2085Z" fill="#bbbbbb"/>
<path d="M96.8549 60.3338C93.6345 57.1805 88.8915 58.7646 86.9207 62.4311C85.8937 64.3445 88.8084 66.0502 89.8383 64.1339C91.6192 60.8203 94.8455 61.826 95.8101 65.1721C96.0649 66.1019 96.2161 67.057 96.2613 68.0199C92.5066 66.8007 87.4698 65.9434 86.2618 70.5147C85.6859 72.701 87.1373 74.8992 88.9687 75.976C91.3847 77.3969 93.863 76.4951 96.3266 75.8039C97.0894 77.0172 99.4401 76.7235 99.4579 74.914C99.4579 73.8016 99.541 72.6061 99.5944 71.3869C99.8061 70.912 99.8231 70.3731 99.6419 69.8858C99.7072 66.3765 99.3777 62.8049 96.8549 60.3338ZM96.1841 72.348H96.1692C94.6852 72.7247 92.9043 73.6948 91.3639 73.3329C90.2093 73.0599 88.7282 71.6034 90.1767 70.663C91.7082 69.6752 94.2786 70.663 96.2345 71.4877L96.1841 72.348Z" fill="#bbbbbb"/>
<path d="M155.034 60.0716C154.527 58.3985 151.681 58.5468 151.737 60.5492C151.865 64.9425 151.799 69.3655 151.508 73.7529C151.277 77.2237 150.891 80.6351 151.372 84.1029C151.669 86.2447 154.934 85.334 154.637 83.213C154.313 80.8784 154.488 78.5022 154.693 76.1409C157.958 76.927 161.443 77.0546 163.778 74.1386C165.901 71.4836 166.465 67.1347 164.749 64.1416C162.936 60.9823 158.282 58.9325 155.034 60.0716ZM161.235 71.8959C159.641 73.9487 157.109 73.3169 154.948 72.7206C155.091 70.033 155.163 67.3404 155.165 64.6429C156.091 61.4421 160.656 63.7737 161.823 65.8295C162.799 67.5679 162.455 70.3474 161.235 71.8959Z" fill="#bbbbbb"/>
<path d="M188.788 72.8953C185.701 74.3934 185.603 70.6675 185.475 68.4011C185.321 65.6957 185.597 62.9577 185.285 60.2612C185.039 58.1283 181.658 58.1045 181.908 60.2612C182.157 62.4178 181.973 66.3098 182.374 69.7538C182.292 69.7868 182.214 69.8265 182.139 69.8725C180.409 70.979 176.405 74.4764 174.208 73.1356C172.386 72.0173 172.653 68.7957 172.834 67.0099C173.081 64.613 173.428 62.3763 172.736 60.0149C172.143 57.9384 168.878 58.8284 169.471 60.9049C170.822 65.6097 166.993 73.2928 172.867 76.2415C176.304 77.965 180.18 75.2003 183.092 73.275C184.107 76.2415 186.176 77.9027 190.482 75.8084C192.447 74.8473 190.735 71.949 188.788 72.8953Z" fill="#bbbbbb"/>
<path d="M55.9958 94.0934C55.4921 95.3553 54.8969 96.5787 54.2149 97.754C53.1761 96.7246 52.6151 95.3037 51.977 94.0103C51.6327 93.3191 50.5968 93.9243 50.9381 94.6036C51.6713 96.0869 52.3213 97.6917 53.5886 98.7982C53.2582 99.3262 52.9169 99.8483 52.5647 100.364C52.3064 100.735 51.2795 102.355 50.6443 102.637C50.6037 102.518 50.5275 102.414 50.4261 102.34C50.3248 102.266 50.2031 102.224 50.0774 102.221H49.7153C49.6106 102.221 49.5076 102.247 49.4166 102.299C49.3256 102.351 49.2499 102.425 49.1972 102.516C49.1445 102.606 49.1166 102.709 49.1163 102.813C49.1161 102.918 49.1435 103.021 49.1959 103.111C50.2495 105.069 52.0363 103.15 52.8437 102.046C54.6025 99.7022 56.0511 97.1408 57.1533 94.4256C57.4383 93.6929 56.2777 93.3814 55.9958 94.0934Z" fill="#bbbbbb"/>
<path d="M71.2383 98.4042C71.0928 98.6356 70.799 98.9975 70.4784 98.9382C70.1579 98.8789 70.1044 98.4547 70.0896 98.1729C70.1231 98.0768 70.1231 97.9723 70.0896 97.8762C70.1044 97.1287 70.3152 96.393 70.3864 95.6454C70.4576 94.8979 69.2496 94.8801 69.1992 95.6454C69.1458 96.301 68.9321 97.102 68.9024 97.8673C68.3088 98.5763 67.0354 99.3327 66.1539 99.0836C64.934 98.7424 65.7681 96.3574 65.7977 95.4615C65.8215 94.6902 64.6105 94.6902 64.6105 95.4615C64.5601 97.0426 63.6459 99.662 65.8482 100.24C66.9523 100.537 68.2227 100.03 69.1665 99.2705C69.2388 99.4071 69.3286 99.5337 69.4337 99.6472C70.3449 100.629 71.7221 99.9676 72.3216 99.0064C72.6837 98.3538 71.6449 97.7487 71.2383 98.4042Z" fill="#bbbbbb"/>
<path d="M50.064 98.7948C50.2451 98.1552 50.2265 97.4756 50.0106 96.8468C49.7947 96.2181 49.3919 95.6703 48.8559 95.2766C48.5281 95.0607 48.1469 94.9397 47.7545 94.9271C47.362 94.9145 46.9738 95.0109 46.6328 95.2054C46.5141 95.2707 46.3717 95.3508 46.2203 95.4487C46.0303 94.8554 45.033 94.9177 45.0538 95.6266C45.1092 97.2794 45.0785 98.934 44.9618 100.584C44.8639 101.913 44.6858 103.221 44.8965 104.547C45.0152 105.306 46.1728 104.986 46.0541 104.226C45.8463 102.912 46.1075 101.557 46.1847 100.237C46.1847 100.014 46.2054 99.7916 46.2173 99.5661C47.4313 100.465 49.5564 100.4 50.064 98.7948ZM48.8381 98.6168C48.3128 99.3703 46.529 98.8423 46.5557 97.9079C46.5632 97.8054 46.5404 97.7031 46.4903 97.6135C46.4402 97.5238 46.3649 97.4508 46.2737 97.4036C46.2737 97.3086 46.2737 97.2167 46.2737 97.1247C46.393 97.0315 46.4793 96.9026 46.5201 96.7569C47.1137 96.2081 47.9358 95.8076 48.5443 96.5878C48.9153 97.0624 49.2151 98.074 48.8381 98.6168Z" fill="#bbbbbb"/>
<path d="M77.4169 94.9447C77.5267 95.7783 77.5861 96.6119 77.6187 97.4484C76.6897 97.3416 75.7518 97.3416 74.8258 97.2111C74.8219 96.3402 74.9215 95.4718 75.1226 94.6244C75.3155 93.8768 74.1579 93.5564 73.965 94.3069C73.7221 95.3589 73.6144 96.4375 73.6445 97.5167C73.6092 97.5955 73.5909 97.6809 73.5909 97.7673C73.5909 97.8537 73.6092 97.9391 73.6445 98.018C73.6445 98.7566 73.692 99.5012 73.6979 100.228C73.7038 100.955 74.9059 100.999 74.9 100.228C74.9 99.6347 74.8673 99.0207 74.8495 98.4155C75.7785 98.5282 76.7194 98.543 77.6514 98.6498C77.6514 99.1779 77.6514 99.7029 77.6514 100.228C77.6514 100.999 78.8535 100.999 78.8535 100.228C78.8893 98.4635 78.8089 96.6987 78.613 94.9447C78.5181 94.1913 77.316 94.1824 77.4169 94.9447Z" fill="#bbbbbb"/>
<path d="M104.663 94.8987C104.041 94.9162 103.45 95.1772 103.019 95.6255C102.241 96.3819 101.656 97.8918 102.618 98.7432C102.764 98.8738 102.934 98.9746 103.119 99.0399C102.582 100.12 101.974 101.686 100.831 101.446C100.077 101.285 99.7536 102.442 100.51 102.603C102.834 103.092 103.384 100.642 104.419 99.1467C104.647 99.1166 104.873 99.073 105.096 99.0161C105.096 99.6984 105.096 100.381 105.096 101.063C105.096 101.837 106.298 101.837 106.298 101.063C106.298 100.102 106.298 99.1407 106.266 98.1796C106.248 97.7495 106.266 97.26 106.2 96.8002L106.242 96.7824C106.311 96.7434 106.371 96.691 106.42 96.6283C106.468 96.5655 106.503 96.4938 106.524 96.4172C106.544 96.3406 106.548 96.2608 106.537 96.1824C106.526 96.104 106.499 96.0286 106.459 95.9607C106.019 95.3793 105.438 94.9076 104.663 94.8987ZM104.832 97.8473C104.492 97.9396 104.14 97.9845 103.787 97.9808C103.712 97.9689 103.638 97.9521 103.565 97.9304H103.538H103.52C103.491 97.9173 103.462 97.9024 103.434 97.8859L103.392 97.8503C103.374 97.8251 103.358 97.7983 103.345 97.7702C103.345 97.7405 103.33 97.7109 103.33 97.699C103.33 97.6872 103.33 97.6694 103.33 97.6723V97.5092C103.332 97.5004 103.332 97.4913 103.33 97.4825C103.331 97.4667 103.331 97.4508 103.33 97.435C103.33 97.3727 103.363 97.3104 103.381 97.2452C103.393 97.1602 103.427 97.0797 103.479 97.0108C103.583 96.7992 103.727 96.6097 103.903 96.4531C103.96 96.382 104.034 96.3252 104.117 96.287C104.179 96.2514 104.235 96.2188 104.298 96.1891H104.316H104.345C104.424 96.1514 104.51 96.1298 104.598 96.1257C104.686 96.1217 104.773 96.1351 104.856 96.1654C104.842 96.2657 104.854 96.3678 104.891 96.462C105.038 96.9167 105.101 97.394 105.078 97.8711C104.999 97.8475 104.915 97.8395 104.832 97.8473Z" fill="#bbbbbb"/>
<path d="M98.7048 94.9182C97.5591 93.7969 95.8732 94.3575 95.1728 95.6598C94.8077 96.3421 95.8435 96.9502 96.2116 96.2679C96.8438 95.0813 97.9924 95.4462 98.3338 96.6358C98.4236 96.9671 98.4764 97.3073 98.4911 97.6503C97.1584 97.2172 95.3657 96.9146 94.9294 98.5402C94.7246 99.3174 95.241 100.098 95.891 100.483C96.7488 100.988 97.6333 100.667 98.5059 100.421C98.779 100.851 99.613 100.747 99.619 100.104C99.619 99.706 99.6486 99.2818 99.6694 98.8487C99.7436 98.6796 99.7499 98.4885 99.6872 98.3148C99.7199 97.0659 99.6011 95.7933 98.7048 94.9182ZM98.4644 99.1899C97.936 99.3234 97.3038 99.6675 96.7547 99.5399C96.3452 99.442 95.8198 98.9259 96.3303 98.5936C96.8408 98.2614 97.7876 98.5936 98.4851 98.8903L98.4644 99.1899Z" fill="#bbbbbb"/>
<path d="M122.848 99.5885C122.637 99.4284 122.581 98.0401 122.551 97.7315C122.471 96.9247 122.433 96.1178 122.43 95.305C122.432 95.2016 122.406 95.0994 122.354 95.0103C122.301 94.9211 122.225 94.8485 122.133 94.8007C122.099 94.7213 122.047 94.6512 121.98 94.5964C121.913 94.5416 121.834 94.5038 121.75 94.4862C121.073 94.3171 120.328 94.0858 119.622 94.1362C118.847 94.1896 118.47 94.8392 118.835 95.4889C118.834 95.5086 118.834 95.5285 118.835 95.5482C118.806 96.7626 118.493 97.9532 117.921 99.0249C117.675 99.4729 117.328 100.057 116.772 100.164C116.093 100.3 115.155 99.7636 115.778 99.0902C116.301 98.5236 115.455 97.6752 114.929 98.2418C114.276 98.9448 113.971 99.9712 114.784 100.686C115.597 101.401 116.772 101.612 117.678 101.081C119.367 100.084 120.005 97.3578 120.034 95.5482C120.036 95.5255 120.036 95.5027 120.034 95.48C120.05 95.4391 120.06 95.3961 120.064 95.3524H120.12C120.5 95.4093 120.875 95.4885 121.245 95.5898C121.255 96.6121 121.331 97.6328 121.474 98.6452C121.578 99.3334 121.661 100.17 122.258 100.621C122.854 101.072 123.463 100.063 122.848 99.5885Z" fill="#bbbbbb"/>
<path d="M128.09 95.0209C126.945 93.8966 125.259 94.4602 124.558 95.7655C124.193 96.4448 125.229 97.05 125.594 96.3588C126.226 95.1722 127.375 95.54 127.719 96.7266C127.808 97.0582 127.861 97.3983 127.877 97.7411C126.541 97.308 124.751 97.0055 124.315 98.6311C124.11 99.4083 124.612 100.188 125.277 100.574C126.134 101.078 127.016 100.758 127.892 100.512C128.165 100.942 128.999 100.838 129.005 100.194C129.005 99.7969 129.034 99.3727 129.052 98.9396C129.128 98.7708 129.134 98.5791 129.07 98.4056C129.106 97.1656 128.987 95.893 128.09 95.0209ZM127.85 99.2926C127.322 99.4261 126.689 99.7702 126.14 99.6397C125.728 99.5447 125.202 99.0286 125.716 98.6963C126.229 98.3641 127.176 98.6963 127.868 98.993C127.862 99.0879 127.856 99.1888 127.85 99.2896V99.2926Z" fill="#bbbbbb"/>
<path d="M134.303 96.9509C134.512 96.6073 134.588 96.1988 134.517 95.8029C134.312 94.5125 133.015 94.204 131.875 94.3197C131.805 94.2719 131.725 94.2389 131.641 94.2227C131.558 94.2065 131.472 94.2074 131.388 94.2254C131.305 94.2435 131.226 94.2782 131.157 94.3276C131.088 94.3769 131.029 94.4398 130.985 94.5125C130.9 94.5646 130.829 94.6364 130.779 94.7218C130.728 94.8072 130.699 94.9036 130.693 95.0028C130.688 95.102 130.707 95.2009 130.748 95.2912C130.79 95.3815 130.853 95.4604 130.931 95.5211C130.949 96.1559 130.985 96.7937 131.02 97.4285C130.966 97.5352 130.941 97.6544 130.949 97.7738C130.956 97.8932 130.995 98.0085 131.062 98.1078C131.089 98.6003 131.113 99.0947 131.133 99.5911C131.07 99.6531 131.021 99.7273 130.988 99.809C130.956 99.8907 130.94 99.9783 130.942 100.066C130.944 100.154 130.964 100.241 131.001 100.321C131.038 100.401 131.091 100.473 131.157 100.531V100.561C131.139 100.718 131.185 100.876 131.284 101C131.383 101.123 131.528 101.202 131.685 101.22C131.842 101.237 132 101.191 132.124 101.092C132.247 100.993 132.327 100.849 132.344 100.692C133.789 100.615 135.579 100.048 135.348 98.3511C135.322 98.0435 135.21 97.7492 135.026 97.5018C134.841 97.2543 134.591 97.0635 134.303 96.9509ZM132.201 96.8412C132.178 96.3873 132.154 95.9334 132.142 95.4796C132.67 95.4262 133.261 95.4796 133.329 95.9987C133.383 96.3547 133.131 96.592 132.792 96.7581C132.594 96.7739 132.397 96.8016 132.201 96.8412ZM132.341 99.4932C132.323 99.0452 132.302 98.6032 132.276 98.1494C132.545 98.0885 132.809 98.0062 133.065 97.9032C133.608 97.8587 134.11 97.9714 134.175 98.4964C134.273 99.2915 133.187 99.4665 132.341 99.4932Z" fill="#bbbbbb"/>
<path d="M142.743 99C143.081 99.8425 141.947 99.4569 141.529 99.2166C141.057 98.9466 140.712 98.4957 140.318 98.1338C140.172 98.0025 140.02 97.8797 139.86 97.766C140.301 97.4677 140.653 97.0576 140.882 96.578C141.111 96.0983 141.208 95.5664 141.163 95.0368C141.125 94.2656 139.923 94.2626 139.976 95.0368C140.045 96.3451 139.219 97.0778 138.017 97.1134C138.053 96.4934 138.092 95.8764 138.178 95.2623C138.281 94.5058 137.124 94.1795 137.02 94.9419C136.783 96.6506 136.898 98.4067 136.468 100.089C136.275 100.836 137.436 101.157 137.628 100.409C137.791 99.7269 137.895 99.0323 137.94 98.3326C139.605 98.4483 140.335 100.326 142.009 100.646C143.336 100.899 144.473 100.077 143.912 98.6826C143.615 97.9825 142.455 98.2792 142.743 99Z" fill="#bbbbbb"/>
<path d="M92.7776 99C93.119 99.8425 91.9822 99.4569 91.5667 99.2166C91.0947 98.9466 90.7475 98.4957 90.3527 98.1338C90.2082 98.0018 90.0555 97.8789 89.8956 97.766C90.336 97.4678 90.689 97.0579 90.9185 96.5783C91.148 96.0986 91.2457 95.5666 91.2016 95.0368C91.16 94.2656 89.9609 94.2626 90.0143 95.0368C90.0826 96.3451 89.2575 97.0778 88.0584 97.1134C88.094 96.4934 88.1326 95.8764 88.2187 95.2623C88.3225 94.5058 87.165 94.1795 87.0581 94.9419C86.8236 96.6506 86.9394 98.4067 86.509 100.089C86.3161 100.836 87.4737 101.157 87.6666 100.409C87.8297 99.727 87.935 99.0324 87.9812 98.3326C89.6433 98.4483 90.3765 100.326 92.0505 100.646C93.3772 100.899 94.514 100.077 93.95 98.6826C93.6532 97.9825 92.4897 98.2792 92.7776 99Z" fill="#bbbbbb"/>
<path d="M149.341 94.3898C147.857 93.4732 145.901 94.4699 145.111 95.8374C144.725 96.5078 145.761 97.113 146.15 96.4307C146.684 95.5081 148.329 94.6034 149.077 95.7959C149.424 96.4376 149.582 97.1652 149.531 97.8932C148.967 97.656 148.339 97.6173 147.75 97.7834C146.898 97.9911 145.61 98.8068 145.767 99.8332C145.945 100.99 147.373 100.895 148.198 100.634C148.62 100.5 149.026 100.323 149.412 100.106C149.412 100.86 150.599 100.857 150.599 100.088C150.599 99.7917 150.62 99.4387 150.641 99.0798L150.697 99.0115C150.774 98.9206 150.815 98.8042 150.81 98.6851C150.806 98.566 150.757 98.4528 150.673 98.3678C150.745 96.8519 150.638 95.1967 149.341 94.3898ZM148.545 99.2133C148.284 99.3438 147.373 99.8065 147.061 99.6315L147.029 99.6137C147.029 99.6137 147.043 99.6137 147.046 99.587C147.046 99.5188 147.325 99.2904 147.397 99.2429C147.554 99.1311 147.73 99.0469 147.916 98.9937C148.213 98.9077 148.697 98.8009 148.976 98.9937C148.833 99.0679 148.682 99.145 148.545 99.2133Z" fill="#bbbbbb"/>
<path d="M47.1246 88.989C47.8547 88.7517 47.5431 87.5918 46.804 87.8321C45.0232 88.4046 43.1711 87.4198 41.3427 87.7817C41.2158 87.8158 41.1037 87.8912 41.0242 87.9959C40.9447 88.1006 40.9022 88.2287 40.9035 88.3601L41.1795 100.354C41.1973 101.122 42.3964 101.125 42.3667 100.354C42.2797 96.5268 42.1916 92.701 42.1026 88.8763C43.7974 88.728 45.4298 89.5378 47.1246 88.989Z" fill="#bbbbbb"/>
<path d="M85.3421 94.5736C83.3238 93.126 80.2726 94.6151 80.0232 97.0535C79.7739 99.492 82.834 102.07 84.8642 99.9518C85.3955 99.3911 84.5496 98.5427 84.0153 99.1034C82.6619 100.515 80.8365 98.252 81.2876 96.8073C81.3983 96.4722 81.5849 96.1671 81.833 95.916C82.0811 95.6649 82.3839 95.4744 82.7178 95.3595C83.0517 95.2447 83.4076 95.2085 83.7578 95.2538C84.108 95.2991 84.443 95.4247 84.7366 95.6208C85.3628 96.0598 85.9624 95.0156 85.3421 94.5736Z" fill="#bbbbbb"/>
<path d="M61.9395 97.1853C62.1076 97.0709 62.2594 96.9342 62.3906 96.7789C62.9011 96.1856 63.103 95.26 62.6696 94.56C61.984 93.4475 59.4997 92.614 58.4728 93.67C57.9385 94.2277 58.7844 95.0761 59.3216 94.5184C59.7312 94.0912 61.1796 94.6578 61.4972 95.0109C62.6192 96.2449 59.8648 96.5504 59.2385 96.5208C58.6123 96.4911 58.4045 97.5976 59.0782 97.7074C59.6184 97.7875 63.0525 98.2829 61.6575 99.333C60.8591 99.9263 59.3187 100.122 58.7339 99.155C58.3332 98.4964 57.2944 99.0986 57.6981 99.7483C58.7072 101.415 61.242 101.321 62.5925 100.104C63.1623 99.5911 63.4651 98.8257 63.0495 98.1108C62.7811 97.6977 62.3943 97.3751 61.9395 97.1853Z" fill="#bbbbbb"/>
</g>
<defs>
<clipPath id="clip0_1_13805">
<rect width="190.961" height="104.894" fill="white" transform="translate(0.362427 0.0900879)"/>
</clipPath>
</defs>
</svg>
