<svg width="145" height="103" viewBox="0 0 145 103" fill="none" xmlns="http://www.w3.org/2000/svg">
<path d="M45.4869 0.274658L47.7644 5.10257L45.4869 10.3683H100.126L97.8499 5.10257L100.126 0.274658H45.4869Z" fill="#bbbbbb"/>
<path d="M69.6159 12.1229L72.3476 10.368H78.722L77.8122 39.332L75.5348 53.3745L73.7141 59.9573L72.8031 61.2743L69.1604 57.3244L67.7951 51.6196L66.8842 39.332V19.5837L67.7951 14.7558L69.6159 12.1229Z" fill="#bbbbbb"/>
<path d="M133.826 82.4316C131.523 82.4316 129.591 83.1256 128.026 84.5118C126.491 85.8689 125.575 87.6409 125.281 89.8245H141.794C141.499 87.4928 140.599 85.6777 139.093 84.3792C137.588 83.0808 135.832 82.4316 133.826 82.4316ZM133.826 79.597C137.101 79.597 139.743 80.7629 141.751 83.0946C143.788 85.397 144.806 88.1265 144.806 91.2848C144.806 91.6103 144.776 92.0666 144.718 92.6573H125.282C125.577 94.9012 126.522 96.6853 128.115 98.0147C129.739 99.3132 131.732 99.9624 134.092 99.9624C135.775 99.9624 137.222 99.6232 138.43 98.9447C139.67 98.2369 140.6 97.3207 141.22 96.1996L143.788 97.7047C142.813 99.2684 141.485 100.508 139.803 101.424C138.12 102.339 136.202 102.797 134.048 102.797C130.566 102.797 127.731 101.705 125.548 99.5215C123.364 97.3379 122.272 94.5637 122.272 91.1987C122.272 87.8337 123.35 85.1335 125.504 82.9189C127.659 80.706 130.433 79.5987 133.827 79.5987L133.826 79.597ZM138.429 71.2742L134.179 77.0294H131.346L134.888 71.2742H138.43H138.429Z" fill="#bbbbbb"/>
<path d="M109.271 79.5953C111.957 79.5953 114.067 80.4219 115.601 82.0751C117.165 83.699 117.948 85.8981 117.948 88.6724V102.265H115.026V88.6724C115.026 86.6954 114.494 85.1594 113.431 84.0675C112.398 82.9757 110.922 82.4298 109.004 82.4298C106.879 82.4298 105.151 83.1083 103.824 84.4671C102.496 85.7948 101.831 87.8613 101.831 90.6649V102.265H98.9089V71.2742H101.831V83.5819C103.485 80.9265 105.963 79.597 109.269 79.597L109.271 79.5953Z" fill="#bbbbbb"/>
<path d="M84.8137 102.794C81.478 102.794 78.7037 101.687 76.4908 99.4742C74.2779 97.2304 73.1707 94.4716 73.1707 91.1945C73.1707 87.9173 74.2779 85.174 76.4908 82.9594C78.7037 80.7156 81.4797 79.5945 84.8137 79.5945C86.9973 79.5945 88.9605 80.1266 90.7015 81.1891C92.4425 82.2224 93.7117 83.6242 94.509 85.3945L92.1188 86.767C91.5281 85.4392 90.5689 84.3905 89.2412 83.6242C87.9427 82.8268 86.4669 82.429 84.8137 82.429C82.3631 82.429 80.2984 83.2849 78.6159 84.9967C76.9334 86.6791 76.093 88.7456 76.093 91.1945C76.093 93.6433 76.9334 95.7253 78.6159 97.437C80.2984 99.1195 82.3649 99.9599 84.8137 99.9599C86.4669 99.9599 87.9427 99.5758 89.2412 98.8095C90.5396 98.0122 91.5574 96.9497 92.2961 95.6219L94.7312 97.0392C93.8167 98.8095 92.4735 100.211 90.7032 101.245C88.9329 102.278 86.9697 102.794 84.8154 102.794H84.8137Z" fill="#bbbbbb"/>
<path d="M65.3797 80.1316H68.3021V102.267H65.3797V98.8145C63.7265 101.472 61.2484 102.799 57.942 102.799C55.2555 102.799 53.1305 101.988 51.5668 100.364C50.0325 98.7112 49.2644 96.4983 49.2644 93.724V80.1316H52.1868V93.724C52.1868 95.701 52.7034 97.2371 53.7367 98.3289C54.7992 99.4207 56.2905 99.9666 58.2089 99.9666C60.334 99.9666 62.0612 99.3019 63.389 97.9741C64.7167 96.6171 65.3814 94.5351 65.3814 91.7316V80.1316H65.3797Z" fill="#bbbbbb"/>
<path d="M27.0786 97.4387C28.761 99.1212 30.8275 99.9616 33.2763 99.9616C35.7251 99.9616 37.7917 99.1212 39.4741 97.4387C41.1566 95.727 41.997 93.6467 41.997 91.1962C41.997 88.7456 41.1566 86.6809 39.4741 84.9984C37.7917 83.2866 35.7251 82.4308 33.2763 82.4308C30.8275 82.4308 28.761 83.2866 27.0786 84.9984C25.3961 86.6809 24.5557 88.7474 24.5557 91.1962C24.5557 93.645 25.3961 95.727 27.0786 97.4387ZM41.5114 99.4742C39.2675 101.687 36.5225 102.794 33.2763 102.794C30.0302 102.794 27.2697 101.687 24.9965 99.4742C22.7527 97.2304 21.6316 94.4716 21.6316 91.1945C21.6316 87.9173 22.7527 85.174 24.9965 82.9594C27.2697 80.7156 30.0285 79.5945 33.2763 79.5945C36.5242 79.5945 39.2675 80.7156 41.5114 82.9594C43.7845 85.1723 44.9211 87.9173 44.9211 91.1945C44.9211 94.4716 43.7845 97.2304 41.5114 99.4742Z" fill="#bbbbbb"/>
<path d="M22.9448 71.2742V74.1965H13.4251V102.265H10.3271V74.1965H0.807373V71.2742H22.9448Z" fill="#bbbbbb"/>
</svg>
